<svg version="1.1" id="Layer_1" xmlns="http://www.w3.org/2000/svg" xmlns:xlink="http://www.w3.org/1999/xlink" x="0px" y="0px"
	 width="100%" viewBox="0 0 7172 5192" enable-background="new 0 0 7172 5192" xml:space="preserve">
<path fill="#000000" opacity="1.000000" stroke="none" 
	d="
M7176.000000,3756.000000 
	C7176.000000,4235.921387 7176.000000,4715.842773 7176.000000,5195.881836 
	C4785.803711,5195.881836 2395.607422,5195.881836 4.000000,5195.881836 
	C4.000000,4717.216797 4.000000,4238.432129 5.871504,3757.984375 
	C9.726479,3756.562012 11.709639,3757.010498 13.693488,3757.013428 
	C71.000313,3757.099365 128.307968,3757.007324 185.613251,3757.333984 
	C194.156067,3757.382812 201.022171,3754.196777 207.982529,3750.156982 
	C321.969452,3683.999268 435.978119,3617.878906 549.980530,3551.748047 
	C664.561279,3485.281494 779.093323,3418.730957 893.804932,3352.490967 
	C903.609497,3346.829834 909.660156,3340.168701 912.836426,3328.798096 
	C921.601624,3297.419922 931.924011,3266.477051 941.609985,3235.355469 
	C979.358948,3114.066162 1017.113770,2992.778320 1054.804321,2871.470703 
	C1056.712280,2865.330078 1058.040527,2859.009277 1059.822998,2852.052979 
	C879.492798,2771.717773 700.266052,2691.870361 521.001831,2612.107666 
	C519.994080,2611.659180 518.457764,2612.398926 515.787048,2612.781738 
	C515.745178,2619.720703 515.664246,2626.896973 515.664062,2634.072998 
	C515.657410,2867.971191 515.658569,3101.869629 515.658325,3335.767822 
	C515.658325,3341.098877 515.877502,3346.442139 515.578674,3351.756592 
	C515.368164,3355.501953 514.452393,3359.208252 513.702454,3363.855469 
	C414.218994,3363.855469 315.734741,3363.855469 217.585312,3363.855469 
	C214.646988,3368.823730 212.117752,3372.740967 209.935242,3376.842773 
	C153.365616,3483.158691 96.832542,3589.494141 40.291679,3695.825439 
	C31.232128,3712.862305 22.139565,3729.881836 13.120181,3746.939941 
	C11.138824,3750.687256 9.090171,3754.001221 4.000000,3752.000000 
	C4.000000,3170.549072 4.000000,2589.098389 5.320461,2004.755737 
	C14.035110,2005.313110 13.120214,2013.159424 14.911170,2019.061768 
	C49.086823,2131.694092 82.870087,2244.445557 116.797348,2357.153320 
	C122.342308,2375.574219 128.184341,2393.906006 134.262283,2413.480713 
	C448.023712,2484.892334 761.857056,2556.324219 1075.710449,2627.667480 
	C1077.475342,2628.068848 1079.520630,2627.235840 1082.801270,2626.796387 
	C1082.801270,2621.410889 1082.801270,2616.153320 1082.801270,2610.895752 
	C1082.801514,2484.312744 1082.708496,2357.729736 1082.973022,2231.147217 
	C1082.994873,2220.691406 1080.554688,2211.892822 1074.997925,2203.075195 
	C1033.833252,2137.754883 993.013672,2072.217285 952.032654,2006.780762 
	C949.627014,2002.939697 946.762817,1999.385742 944.092407,1995.670776 
	C937.332947,1995.670776 931.359314,1995.670776 925.385681,1995.670776 
	C625.583984,1995.670776 325.782349,1995.668457 25.980665,1995.684570 
	C18.653772,1995.684937 11.326889,1995.890259 4.000000,1996.000000 
	C4.000000,1332.084961 4.000000,668.169861 4.000000,4.127400 
	C2394.275879,4.127400 4784.551758,4.127400 7176.000000,4.127400 
	C7176.000000,1244.117310 7176.000000,2484.234863 7174.720703,3727.292236 
	C7166.989746,3726.239258 7166.878906,3718.830566 7164.687500,3712.832031 
	C7081.092773,3484.069336 6997.732910,3255.220703 6914.291992,3026.401611 
	C6803.951172,2723.815430 6693.577637,2421.240723 6583.190430,2118.671631 
	C6568.391113,2078.106934 6553.428223,2037.602295 6538.155762,1996.021240 
	C6530.133301,1995.905151 6522.213867,1995.691040 6514.293945,1995.690430 
	C6297.648438,1995.672241 6081.003418,1995.675903 5864.357910,1995.675903 
	C5764.358887,1995.675903 5664.360352,1995.675903 5564.361328,1995.675903 
	C5491.695312,1995.675903 5419.029785,1995.626099 5346.363770,1995.771484 
	C5340.662109,1995.782837 5334.408691,1993.822144 5328.332520,1999.166992 
	C5328.332520,2005.069214 5328.332520,2011.660400 5328.332520,2018.251587 
	C5328.332520,2157.583252 5328.332520,2296.915039 5328.332520,2436.246826 
	C5328.332520,2636.911377 5328.286133,2837.575684 5328.367188,3038.240234 
	C5328.385742,3084.546631 5323.165039,3130.140869 5307.212891,3173.742188 
	C5271.037598,3272.612549 5203.128418,3335.826172 5098.363281,3356.857178 
	C5047.443848,3367.079102 4996.324219,3367.129150 4945.299316,3359.108887 
	C4906.862793,3353.067139 4870.376953,3340.593750 4837.342285,3319.383789 
	C4784.143555,3285.227295 4749.702637,3236.468506 4728.754395,3177.739502 
	C4714.086426,3136.615479 4707.663574,3093.904541 4707.664551,3050.236084 
	C4707.670410,2716.906494 4707.667480,2383.576904 4707.667480,2050.247314 
	C4707.667480,2036.247437 4707.745605,2022.246826 4707.609375,2008.248169 
	C4707.572754,2004.456909 4706.882812,2000.671997 4706.368164,1995.675903 
	C4698.089844,1995.675903 4690.860840,1995.675903 4683.632324,1995.675903 
	C4371.635742,1995.675903 4059.639404,1995.675781 3747.642822,1995.676025 
	C3743.642822,1995.676025 3739.631592,1995.492920 3735.646484,1995.736084 
	C3731.891846,1995.965210 3728.165039,1996.645508 3725.021240,1997.050659 
	C3724.383301,1998.947632 3724.005371,1999.547241 3724.004883,2000.147217 
	C3723.800781,2284.801025 3723.622803,2569.455078 3723.421143,2854.108887 
	C3723.420654,2854.702148 3723.232178,2855.450439 3722.845703,2855.847168 
	C3722.416992,2856.287109 3721.659180,2856.406006 3719.605225,2857.270264 
	C3658.357178,2786.011475 3597.284912,2713.964600 3535.990723,2642.110107 
	C3475.008789,2570.621582 3414.083984,2499.084473 3353.130615,2427.571777 
	C3291.744385,2355.551758 3230.365967,2283.525391 3168.960449,2211.521973 
	C3107.609863,2139.582764 3046.229736,2067.668457 2985.532227,1996.527954 
	C2952.708740,1994.633423 2832.384277,1995.256836 2815.878418,1997.399658 
	C2812.768311,2001.944458 2809.336182,2006.833496 2806.031738,2011.807373 
	C2755.159912,2088.381836 2704.302490,2164.966064 2653.445801,2241.550537 
	C2601.482178,2319.802002 2549.611084,2398.115234 2497.439453,2476.227783 
	C2491.642090,2484.907471 2488.919678,2493.541016 2489.013672,2504.067383 
	C2489.447998,2552.729492 2489.316895,2601.398438 2489.101318,2650.063477 
	C2489.062500,2658.880127 2490.440430,2667.242920 2493.165771,2675.531982 
	C2506.466797,2715.986328 2519.668701,2756.472900 2533.026123,2796.908447 
	C2534.636963,2801.785156 2536.976562,2806.421387 2539.184326,2811.657715 
	C2544.077637,2811.657715 2548.022461,2811.657715 2551.967285,2811.657715 
	C2556.634033,2811.657715 2561.300537,2811.658203 2565.967285,2811.658203 
	C2569.967285,2811.658447 2573.967041,2811.658203 2577.967041,2811.658203 
	C2582.633789,2811.658203 2587.300293,2811.658203 2591.967041,2811.658203 
	C2595.967041,2811.658203 2599.966797,2811.658203 2603.966797,2811.658203 
	C2607.966797,2811.658203 2611.966797,2811.658203 2615.966797,2811.658203 
	C2620.633301,2811.658203 2625.300049,2811.658203 2629.966553,2811.658203 
	C2633.966553,2811.658203 2637.966309,2811.658203 2641.966309,2811.658203 
	C2646.633057,2811.658203 2651.299561,2811.658203 2655.966309,2811.658203 
	C2659.966309,2811.658203 2663.966064,2811.658203 2667.966064,2811.658203 
	C2672.632812,2811.658203 2677.299316,2811.658203 2681.966064,2811.658203 
	C2685.966064,2811.658203 2689.965820,2811.658203 2693.965820,2811.658203 
	C2697.965820,2811.658203 2701.965576,2811.658203 2705.965576,2811.658203 
	C2710.632324,2811.658203 2715.298828,2811.658203 2719.965576,2811.658203 
	C2723.965576,2811.658203 2727.965332,2811.658203 2731.965332,2811.658203 
	C2736.632080,2811.658203 2741.298584,2811.658203 2745.965332,2811.658203 
	C2749.965332,2811.658203 2753.965088,2811.658203 2757.965088,2811.658203 
	C2761.965088,2811.658203 2765.965088,2811.658203 2769.965088,2811.658203 
	C2774.631592,2811.658203 2779.298340,2811.658203 2783.964844,2811.658203 
	C2787.964844,2811.658203 2791.964600,2811.658203 2795.964600,2811.658203 
	C2800.631348,2811.658203 2805.297852,2811.658203 2809.964600,2811.658203 
	C2813.964600,2811.658203 2817.964355,2811.658203 2821.964355,2811.658203 
	C2825.964355,2811.658203 2829.964355,2811.658203 2833.964355,2811.658203 
	C2838.630859,2811.658203 2843.297607,2811.658203 2847.964111,2811.658203 
	C2851.964111,2811.658203 2855.963867,2811.658203 2859.963867,2811.658203 
	C2864.630615,2811.658203 2869.297119,2811.658203 2873.963867,2811.658203 
	C2877.963867,2811.658203 2881.963623,2811.658203 2885.963623,2811.658203 
	C2889.963623,2811.658203 2893.963623,2811.658203 2897.963623,2811.658203 
	C2902.630127,2811.658203 2907.296875,2811.658203 2911.963379,2811.658203 
	C2915.963379,2811.658203 2919.963379,2811.658203 2923.963379,2811.658203 
	C2928.629883,2811.658203 2933.296631,2811.658203 2937.963135,2811.658203 
	C2941.963135,2811.658203 2945.962891,2811.658203 2949.962891,2811.658203 
	C2954.629639,2811.658203 2959.296143,2811.658203 2963.962891,2811.658203 
	C2967.962891,2811.658203 2971.962646,2811.658203 2975.962646,2811.658203 
	C2979.962646,2811.658203 2983.962646,2811.658203 2987.962646,2811.658203 
	C2992.629150,2811.658203 2997.295898,2811.658203 3001.962402,2811.658203 
	C3005.962402,2811.658203 3009.962158,2811.658203 3013.962158,2811.658203 
	C3018.628906,2811.658203 3023.295410,2811.658203 3027.962158,2811.658203 
	C3031.962158,2811.658203 3035.961914,2811.658203 3039.961914,2811.658203 
	C3043.961914,2811.658203 3047.961914,2811.658203 3051.961914,2811.658203 
	C3056.628418,2811.658203 3061.295166,2811.658203 3065.961670,2811.658203 
	C3069.961670,2811.658203 3073.961670,2811.658203 3077.961670,2811.658203 
	C3082.628174,2811.658203 3087.294922,2811.658203 3091.961426,2811.658203 
	C3095.961426,2811.658203 3099.961182,2811.658203 3103.961182,2811.658203 
	C3107.961182,2811.658203 3111.961182,2811.658203 3115.961182,2811.658203 
	C3120.627686,2811.658203 3125.294434,2811.658203 3129.960938,2811.658203 
	C3133.960938,2811.658203 3137.960938,2811.658203 3141.960938,2811.658203 
	C3146.627441,2811.658203 3151.294189,2811.658203 3155.960693,2811.658203 
	C3159.960693,2811.658203 3163.960449,2811.658203 3167.960449,2811.658203 
	C3172.627197,2811.658203 3177.293701,2811.658203 3181.960449,2811.658203 
	C3185.960449,2811.658203 3189.960205,2811.658203 3193.960205,2811.658203 
	C3197.960205,2811.658203 3201.960205,2811.658203 3205.960205,2811.658203 
	C3210.626709,2811.658203 3215.293457,2811.658203 3219.959961,2811.658203 
	C3223.959961,2811.658203 3227.959961,2811.657959 3231.959961,2811.658447 
	C3236.626465,2811.658936 3241.311523,2811.407959 3245.953613,2811.744629 
	C3249.351807,2811.991699 3253.466309,2810.206299 3257.007812,2815.027100 
	C3175.446777,2845.467773 3093.993896,2873.803223 3011.327881,2904.892090 
	C3257.982422,3190.096191 3503.374512,3473.663086 3748.770996,3757.187988 
	C3756.297852,3757.187988 3762.945068,3757.187988 3769.592285,3757.187988 
	C3833.591553,3757.187988 3897.591064,3757.187988 3961.590332,3757.187988 
	C4048.256104,3757.187988 4134.921875,3757.229248 4221.587402,3757.110352 
	C4228.621094,3757.100830 4236.005371,3758.558594 4243.667480,3754.967773 
	C4243.667480,3748.423340 4243.667480,3742.516602 4243.667480,3736.610107 
	C4243.667480,3730.610107 4243.667480,3724.610352 4243.667480,3718.610352 
	C4243.667480,3711.943848 4243.667480,3705.277100 4243.667480,3698.610596 
	C4243.667480,3692.610596 4243.667480,3686.610596 4243.667480,3680.610596 
	C4243.667480,3674.610596 4243.667480,3668.610840 4243.667480,3662.610840 
	C4243.667480,3656.610840 4243.667480,3650.611084 4243.667480,3644.611084 
	C4243.667480,3638.611084 4243.667480,3632.611328 4243.667480,3626.611328 
	C4243.667480,3620.611328 4243.667480,3614.611572 4243.667480,3608.611572 
	C4243.667480,3601.945068 4243.667480,3595.278320 4243.667480,3588.611816 
	C4243.667480,3582.611816 4243.667480,3576.611816 4243.667480,3570.611816 
	C4243.667480,3564.611816 4243.667480,3558.612061 4243.667480,3552.612061 
	C4243.667480,3546.612061 4243.667480,3540.612305 4243.667480,3534.612305 
	C4243.667480,3528.612305 4243.667480,3522.612549 4243.667480,3516.612549 
	C4243.667480,3509.946045 4243.667969,3503.279297 4243.667480,3496.612793 
	C4243.667480,3490.612793 4243.419922,3484.599854 4243.737793,3478.616943 
	C4244.031738,3473.085449 4242.230957,3467.111816 4245.417480,3461.639160 
	C4247.041992,3462.513672 4247.695801,3462.661377 4248.012207,3463.070557 
	C4249.638672,3465.173340 4251.263672,3467.286377 4252.735352,3469.498291 
	C4294.194824,3531.830078 4346.209961,3583.864746 4406.947754,3627.340332 
	C4479.187988,3679.048828 4559.009766,3714.897705 4643.903320,3739.991211 
	C4742.209961,3769.049316 4843.042969,3782.260254 4945.129883,3786.667236 
	C5021.725098,3789.973145 5098.244141,3788.287842 5174.640137,3780.877197 
	C5227.080078,3775.790527 5279.004883,3767.932861 5330.394531,3756.374756 
	C5445.437988,3730.499756 5552.447754,3686.677979 5647.048340,3615.013184 
	C5648.904297,3613.607178 5651.235352,3612.827881 5653.951172,3611.447998 
	C5656.752441,3617.808594 5655.570801,3623.120850 5655.589355,3628.190186 
	C5655.726562,3666.189209 5655.604492,3704.189453 5655.747559,3742.188477 
	C5655.764160,3746.526123 5656.917480,3750.859619 5657.610352,3755.658203 
	C5666.209473,3755.658203 5673.504883,3755.658447 5680.800293,3755.658447 
	C5802.798828,3755.658447 5924.797852,3755.658691 6046.796387,3755.658447 
	C6096.128906,3755.658447 6145.461914,3755.717285 6194.793945,3755.565674 
	C6199.821289,3755.550293 6205.511719,3757.487549 6210.795410,3751.437744 
	C6210.795410,3736.670410 6210.795410,3720.737793 6210.795410,3704.805176 
	C6210.795410,3688.805420 6210.795410,3672.805420 6210.795410,3656.805664 
	C6210.795410,3640.139160 6210.795410,3623.472656 6210.795410,3606.806152 
	C6210.795410,3590.806396 6210.562988,3574.802246 6210.860352,3558.808105 
	C6211.155273,3542.945312 6209.484375,3526.997803 6212.089355,3510.356445 
	C6216.358887,3509.940430 6220.206055,3509.291016 6224.062500,3509.229980 
	C6342.407715,3507.352539 6487.972656,3508.267334 6506.728516,3511.092041 
	C6518.882812,3551.402588 6531.197754,3592.118164 6543.431641,3632.857910 
	C6555.819336,3674.108154 6567.326172,3715.634766 6581.151367,3757.187744 
	C6588.275391,3757.187744 6594.218262,3757.187988 6600.161133,3757.187988 
	C6786.159180,3757.187988 6972.156738,3757.198730 7158.154785,3757.138184 
	C7164.103027,3757.136230 7170.051758,3756.395996 7176.000000,3756.000000 
M2785.176270,1919.571411 
	C2784.494629,1920.760376 2783.812988,1921.949219 2780.650635,1924.157104 
	C2775.125000,1929.921997 2769.643555,1935.730103 2764.066406,1941.444580 
	C2736.158691,1970.038574 2708.153809,1998.538086 2680.317627,2027.201416 
	C2627.435791,2081.654785 2574.639893,2136.191406 2521.818604,2190.703857 
	C2492.626709,2220.830322 2463.515869,2251.035645 2434.261719,2281.101318 
	C2404.546631,2311.640625 2374.710938,2342.062744 2344.890137,2372.499268 
	C2342.307129,2375.135742 2340.264404,2378.982178 2334.737305,2377.691406 
	C2333.092285,2373.801025 2331.073730,2369.683105 2329.576172,2365.383789 
	C2314.703125,2322.686523 2299.918457,2279.958496 2285.104492,2237.240479 
	C2235.646729,2094.623535 2186.219238,1951.996094 2136.702881,1809.399536 
	C2126.186523,1779.114258 2126.037109,1779.166382 2128.829590,1747.125366 
	C2129.003174,1745.134521 2129.142578,1743.140625 2129.316406,1741.149780 
	C2132.906006,1700.055176 2136.564941,1658.966431 2140.069580,1617.864502 
	C2143.234863,1580.740601 2146.142334,1543.594849 2149.326172,1506.472534 
	C2152.681152,1467.357910 2156.340332,1428.269165 2159.660889,1389.151611 
	C2162.981445,1350.036499 2165.896729,1310.886597 2169.260498,1271.775391 
	C2173.878662,1218.083984 2178.869873,1164.424805 2183.477051,1110.732544 
	C2186.890625,1070.949219 2189.829346,1031.125488 2193.188232,991.337280 
	C2199.007324,922.399536 2204.987549,853.475525 2212.382080,781.600586 
	C2213.068604,771.398315 2213.755371,761.196045 2214.654541,747.835571 
	C2206.683838,760.960571 2204.683350,772.245239 2202.909912,786.784302 
	C2201.598877,791.939087 2200.306641,797.098755 2198.974121,802.247986 
	C2146.325439,1005.703003 2093.673584,1209.157104 2041.019287,1412.610718 
	C2039.056519,1420.194702 2037.067017,1427.771729 2034.835327,1436.328369 
	C2029.342651,1436.328369 2024.753540,1436.346436 2020.164673,1436.325439 
	C1972.881714,1436.109253 1925.598755,1435.853271 1878.315674,1435.673462 
	C1795.067383,1435.356812 1711.818848,1435.064697 1628.570312,1434.845825 
	C1623.380737,1434.832153 1618.189331,1435.542358 1612.926636,1435.921021 
	C1606.296509,1456.446411 1599.905518,1476.028564 1593.650146,1495.653809 
	C1587.387573,1515.301392 1581.287720,1535.000977 1575.066162,1554.661743 
	C1568.648438,1574.942383 1562.213013,1595.217651 1555.705322,1615.469604 
	C1549.399902,1635.091919 1542.884521,1654.647339 1536.661133,1674.295410 
	C1530.558350,1693.562134 1525.109985,1713.049438 1516.877686,1734.965576 
	C1512.584351,1727.232056 1509.576538,1722.351074 1507.072876,1717.223877 
	C1471.765503,1644.913818 1436.476929,1572.594238 1401.287231,1500.226807 
	C1373.661255,1443.413940 1346.252563,1386.495239 1318.600098,1329.695190 
	C1304.632568,1301.005005 1290.338623,1272.473755 1276.219116,1241.010986 
	C1272.410767,1233.532959 1269.411865,1225.565430 1262.585449,1216.952759 
	C1263.189087,1228.046265 1263.873901,1236.414185 1268.655640,1247.104370 
	C1279.147461,1291.797852 1289.646484,1336.489502 1300.129639,1381.185059 
	C1330.067017,1508.824829 1359.976318,1636.471436 1389.940430,1764.104858 
	C1404.690674,1826.933960 1419.488770,1889.752075 1434.407593,1952.541138 
	C1436.155151,1959.896484 1436.457397,1966.742188 1433.517334,1973.986572 
	C1429.769775,1983.221069 1426.949463,1992.833496 1423.771729,2002.297119 
	C1396.876953,2082.395996 1370.052002,2162.518311 1342.944824,2242.545166 
	C1341.425659,2247.030518 1341.581665,2253.056885 1335.416992,2256.022705 
	C1331.208496,2252.468018 1327.150024,2249.126465 1323.184692,2245.677979 
	C1228.678101,2163.492920 1134.185669,2081.291260 1039.672852,1999.113281 
	C1034.148193,1994.309570 1028.725098,1989.311157 1022.710754,1985.198853 
	C1021.003845,1984.031616 1017.371765,1985.679932 1012.997009,1986.248291 
	C1017.803162,1994.126587 1021.537537,2000.378784 1025.395996,2006.553467 
	C1105.498169,2134.738770 1185.524658,2262.971680 1265.915405,2390.975830 
	C1271.717285,2400.214355 1273.324707,2408.197266 1270.177856,2418.847168 
	C1242.274170,2513.276123 1214.921387,2607.867920 1187.320312,2702.386475 
	C1186.049805,2706.737549 1183.965820,2710.851074 1182.402588,2714.723633 
	C1180.108887,2714.723633 1178.742798,2714.972168 1177.498169,2714.688477 
	C1052.926636,2686.298584 928.376526,2657.815430 803.795959,2629.465820 
	C751.881042,2617.652344 699.902588,2606.118164 646.432922,2592.404541 
	C640.508423,2591.829102 634.788879,2588.329834 626.920105,2590.335938 
	C634.206421,2596.007812 640.395447,2599.533203 650.568115,2601.114014 
	C694.879150,2620.955566 739.180908,2640.817871 783.503174,2660.634277 
	C895.836365,2710.858887 1008.187866,2761.042480 1120.489258,2811.338135 
	C1125.707642,2813.675537 1132.125977,2814.428711 1135.363647,2820.756836 
	C1133.708008,2826.394043 1132.112671,2832.118652 1130.348022,2837.790527 
	C1075.228271,3014.949707 1019.978943,3192.068604 965.216003,3369.337891 
	C961.619934,3380.978516 956.055969,3388.621582 945.447021,3394.747314 
	C779.468201,3490.584717 613.696716,3586.781250 447.896759,3682.927979 
	C399.671967,3710.893555 351.507843,3738.963623 300.546204,3767.657227 
	C284.401672,3777.168701 268.257141,3786.680176 249.333603,3796.515869 
	C242.215027,3800.785645 235.096451,3805.055176 227.977890,3809.324707 
	C238.040054,3811.114990 245.312805,3806.670654 254.964783,3800.277100 
	C262.649506,3796.634033 270.451385,3793.216553 277.990479,3789.293457 
	C288.339874,3783.908936 298.490265,3778.141602 311.253052,3771.123779 
	C319.087860,3765.067871 329.031647,3763.889893 337.694916,3759.620117 
	C442.146393,3708.136475 546.710815,3656.882324 651.239563,3605.555664 
	C731.279907,3566.253906 811.303711,3526.918457 891.359680,3487.648438 
	C898.978149,3483.911377 906.774109,3480.536133 914.414307,3477.026855 
	C915.133423,3478.299072 915.568665,3478.846436 915.758667,3479.468750 
	C915.942932,3480.072998 915.919983,3480.754883 915.906067,3481.400879 
	C915.891907,3482.062256 915.816162,3482.728027 915.697693,3483.379395 
	C915.578735,3484.033447 915.399597,3484.679688 915.199097,3485.314453 
	C914.999146,3485.948242 914.720215,3486.556641 914.509583,3487.187500 
	C835.311829,3724.530273 756.116028,3961.873779 676.934570,4199.222168 
	C676.091675,4201.748047 675.469238,4204.346680 674.684814,4206.893555 
	C674.295471,4208.157715 673.733154,4209.368652 673.325073,4210.628418 
	C673.122864,4211.252441 672.934448,4211.956055 673.028442,4212.580078 
	C673.122864,4213.207520 673.575989,4213.781250 674.346863,4215.336426 
	C679.274109,4212.377441 684.299438,4209.633789 689.045227,4206.470215 
	C871.366394,4084.946289 1053.604492,3963.297363 1236.114380,3842.057373 
	C1246.311401,3835.283936 1251.937134,3827.097412 1255.786987,3815.934082 
	C1315.210938,3643.621338 1374.973022,3471.425537 1434.389648,3299.110352 
	C1438.603149,3286.890625 1444.475586,3275.019287 1446.188843,3260.249023 
	C1441.884277,3261.283936 1438.811646,3261.877441 1435.825073,3262.762207 
	C1373.316650,3281.276611 1310.834351,3299.879883 1248.312500,3318.349365 
	C1190.896362,3335.310059 1133.439453,3352.133301 1074.960571,3366.217529 
	C1075.009155,3365.222900 1075.057617,3364.228516 1076.748291,3361.022949 
	C1084.670898,3356.200195 1092.808228,3351.695557 1100.483521,3346.507080 
	C1198.542358,3280.226074 1296.535645,3213.848145 1394.543335,3147.491699 
	C1430.881836,3122.888428 1467.106445,3098.114258 1503.637451,3073.800293 
	C1511.268555,3068.721680 1515.982422,3062.523926 1518.796753,3053.885498 
	C1526.409180,3030.518555 1534.692993,3007.371338 1542.519897,2984.072998 
	C1544.138550,2979.254883 1544.932495,2974.159424 1546.091553,2969.255371 
	C1539.836914,2965.635498 1534.706177,2962.586914 1529.503662,2959.666260 
	C1444.319214,2911.845215 1359.114746,2864.060059 1273.970093,2816.168457 
	C1270.248413,2814.075195 1264.686157,2813.845215 1263.864746,2808.094971 
	C1263.864746,2808.094971 1263.622437,2808.253662 1266.781860,2805.973633 
	C1381.274048,2815.488281 1495.766113,2825.003174 1612.604126,2834.712646 
	C1608.507690,2826.768799 1605.738892,2820.891846 1602.533081,2815.263916 
	C1581.111206,2777.658691 1559.566528,2740.123779 1538.117188,2702.534180 
	C1488.950317,2616.370117 1439.815063,2530.187744 1393.711426,2442.679688 
	C1394.819336,2442.681396 1395.927246,2442.683350 1399.270142,2444.174316 
	C1483.850220,2514.193604 1568.430298,2584.212646 1654.259033,2655.265625 
	C1661.873657,2639.558838 1666.788452,2624.517334 1673.098511,2610.088623 
	C1676.259644,2602.860596 1676.120361,2596.301758 1674.156006,2588.864746 
	C1649.873779,2496.934326 1625.778320,2404.954590 1601.734985,2312.960938 
	C1580.045898,2229.974609 1558.480347,2146.956055 1540.338135,2064.119385 
	C1541.498657,2064.107178 1542.659302,2064.094971 1545.133911,2066.649658 
	C1574.165161,2136.725586 1603.199707,2206.800049 1632.226685,2276.877930 
	C1657.182495,2337.126953 1682.116455,2397.385010 1707.113892,2457.616943 
	C1708.503174,2460.964600 1708.674683,2465.822998 1714.797241,2464.906982 
	C1746.253296,2378.787109 1777.765869,2292.510010 1809.300537,2206.240967 
	C1809.512817,2205.660156 1809.930298,2204.959473 1810.437988,2204.734619 
	C1810.978394,2204.494629 1811.740356,2204.754639 1813.730835,2204.879395 
	C1815.681519,2209.664551 1817.985229,2214.963623 1820.020386,2220.363525 
	C1837.152222,2265.820801 1854.207520,2311.306885 1871.373291,2356.751221 
	C1873.108154,2361.343750 1875.419678,2365.718506 1878.625244,2372.737793 
	C1892.925171,2326.769531 1906.374023,2283.613037 1919.773315,2240.441162 
	C1933.183838,2197.233398 1946.573364,2154.018555 1959.919312,2110.790771 
	C1973.464233,2066.918457 1986.682495,2022.943115 2000.527832,1979.166016 
	C2014.081665,1936.311035 2026.500488,1893.079102 2042.312256,1850.660034 
	C2043.768799,1855.675781 2044.129517,1860.548340 2043.865112,1865.386841 
	C2040.995117,1917.895264 2038.086548,1970.401733 2035.070679,2022.901978 
	C2031.406372,2086.690918 2027.571777,2150.470215 2023.925293,2214.260254 
	C2022.063599,2246.826660 2020.581543,2279.415039 2018.699341,2311.979980 
	C2015.320068,2370.450928 2011.698975,2428.907959 2008.315063,2487.378418 
	C2006.314941,2521.937012 2004.647461,2556.514404 2002.702271,2591.076416 
	C2000.121582,2636.929443 1997.398804,2682.774902 1994.795288,2728.626709 
	C1994.589600,2732.248291 1994.836426,2735.895508 1994.880859,2740.323730 
	C2002.624268,2738.811523 2006.750610,2734.300537 2011.386353,2730.837158 
	C2085.576660,2675.403320 2159.714111,2619.898926 2233.880127,2564.432129 
	C2237.606934,2561.644775 2241.213379,2558.421143 2245.402832,2556.639648 
	C2247.618408,2555.697021 2250.970947,2557.427490 2255.479980,2558.259521 
	C2251.353760,2565.525391 2248.131836,2571.282227 2244.833984,2576.994873 
	C2186.908447,2677.330078 2129.058350,2777.709229 2070.901367,2877.910156 
	C2065.346191,2887.481934 2061.851807,2896.661621 2063.418457,2907.987793 
	C2064.688232,2917.169434 2063.893311,2926.619873 2064.439941,2935.926270 
	C2064.662354,2939.710938 2066.010498,2943.429932 2067.008057,2947.902588 
	C2123.583008,2949.683838 2179.457764,2950.841797 2235.270752,2953.369141 
	C2290.895264,2955.888672 2346.678467,2954.882812 2407.016357,2959.935059 
	C2372.447510,2976.741455 2340.915283,2988.703857 2310.053467,3002.136963 
	C2278.332031,3015.944580 2246.363770,3029.184326 2214.553223,3042.788330 
	C2183.488281,3056.072510 2152.059326,3068.543457 2121.411865,3082.853760 
	C2121.870361,3085.869141 2121.980713,3087.829834 2122.478271,3089.686523 
	C2135.400391,3137.898438 2148.443115,3186.077881 2161.239258,3234.322998 
	C2163.380615,3242.395264 2167.560059,3248.747559 2173.696533,3254.215332 
	C2186.623047,3265.732178 2199.417480,3277.398682 2212.193604,3289.083252 
	C2348.833496,3414.047363 2485.469727,3539.015381 2622.034668,3664.061035 
	C2625.827393,3667.533936 2628.818848,3671.882080 2631.169434,3676.786865 
	C2631.169434,3676.786865 2630.170898,3677.767578 2627.436279,3677.121094 
	C2626.197998,3676.629883 2624.906006,3676.241699 2623.729004,3675.632080 
	C2512.101807,3617.825684 2400.489746,3559.990234 2288.854736,3502.199219 
	C2277.241699,3496.187256 2265.496094,3490.429932 2251.388672,3483.336182 
	C2253.000244,3489.486816 2253.770264,3493.194580 2254.938965,3496.772705 
	C2287.353027,3596.014648 2319.989990,3695.184814 2352.008789,3794.554199 
	C2355.722168,3806.079590 2361.173096,3814.830811 2371.708984,3820.521973 
	C2374.038086,3821.780029 2376.131592,3823.478271 2378.317627,3824.997314 
	C2465.785400,3885.782227 2553.248779,3946.573486 2640.718018,4007.356201 
	C2736.932129,4074.215576 2833.148438,4141.071777 2929.382812,4207.901855 
	C2933.289551,4210.615234 2936.822266,4214.414551 2943.565674,4214.459473 
	C2937.393555,4194.788086 2931.652832,4176.466797 2925.896240,4158.150391 
	C2920.313965,4140.388672 2914.678467,4122.644043 2909.134277,4104.870117 
	C2903.391602,4086.460938 2897.749023,4068.020020 2892.028320,4049.603760 
	C2886.504395,4031.821045 2880.762939,4014.104004 2875.437500,3996.262451 
	C2870.006592,3978.066650 2862.364746,3960.432617 2859.544434,3939.586670 
	C2867.127686,3943.750732 2872.968994,3946.842285 2878.702148,3950.123535 
	C2971.100830,4003.010010 3063.467529,4055.952637 3155.880859,4108.812988 
	C3209.014404,4139.205566 3262.218750,4169.473633 3316.837402,4201.816895 
	C3321.903809,4204.750977 3326.782715,4208.117676 3332.117920,4210.432129 
	C3334.688965,4211.547363 3338.119873,4210.679199 3340.938721,4211.970703 
	C3340.968506,4211.669922 3340.998535,4211.368652 3338.973389,4209.412598 
	C3331.544922,4203.301758 3324.116455,4197.191406 3315.133301,4188.963379 
	C3285.588379,4162.074707 3256.053223,4135.175293 3226.496826,4108.299316 
	C3078.687012,3973.894775 2930.950195,3839.410156 2782.890381,3705.281738 
	C2772.580566,3695.941650 2766.085693,3685.541016 2761.829590,3672.527588 
	C2728.738037,3571.350342 2695.295898,3470.288086 2661.876953,3369.218262 
	C2623.443604,3252.983154 2584.916260,3136.779053 2546.475098,3020.546631 
	C2545.283936,3016.945068 2544.598145,3013.176514 2543.410645,3008.420166 
	C2562.504639,3001.377441 2580.489990,2994.662109 2598.532227,2988.102295 
	C2697.332275,2952.181152 2796.145020,2916.295410 2894.959473,2880.414307 
	C2898.498535,2879.129150 2903.187256,2879.213135 2902.617432,2873.177979 
	C2769.332520,2873.177979 2636.065918,2873.179443 2502.799316,2873.164551 
	C2500.804932,2873.164307 2498.806885,2873.002930 2496.818359,2872.828613 
	C2496.181641,2872.772705 2495.558838,2872.458008 2494.949951,2872.211914 
	C2494.332764,2871.962646 2493.740967,2871.651611 2492.829590,2871.222412 
	C2491.454834,2867.752441 2489.792969,2864.115723 2488.551025,2860.340332 
	C2457.988037,2767.429199 2427.458984,2674.506348 2396.958252,2581.574707 
	C2393.431641,2570.829590 2390.844971,2559.706543 2386.468750,2549.330078 
	C2382.572021,2540.090820 2383.950439,2532.702393 2390.142822,2525.513184 
	C2391.005371,2524.511719 2391.622803,2523.299561 2392.359619,2522.188721 
	C2435.420898,2457.248047 2478.437012,2392.277100 2521.555176,2327.374268 
	C2593.787354,2218.648438 2666.137695,2110.000977 2738.316406,2001.239624 
	C2754.867432,1976.299561 2770.924072,1951.031494 2788.581787,1924.910156 
	C2789.482910,1924.098022 2789.932617,1923.085449 2791.786377,1920.259766 
	C2792.630859,1918.851807 2793.475586,1917.443970 2796.653076,1915.482544 
	C2797.351562,1914.478760 2798.437988,1913.551880 2798.655273,1912.452759 
	C2798.959717,1910.915283 2798.616455,1909.249756 2798.550293,1907.639038 
	C2796.948486,1908.063110 2794.927734,1908.038452 2793.860352,1909.034790 
	C2792.747803,1910.073242 2792.554688,1912.096680 2789.768311,1915.010986 
	C2788.944580,1916.441040 2788.121094,1917.871216 2785.176270,1919.571411 
M1232.947388,4485.323242 
	C1256.811279,4436.299805 1280.714600,4387.295410 1304.530518,4338.249023 
	C1347.520020,4249.715332 1390.416748,4161.137207 1433.428955,4072.614502 
	C1470.629150,3996.053711 1507.950928,3919.552002 1545.156738,3842.993652 
	C1547.344849,3838.490967 1548.977905,3833.718750 1550.956909,3828.856689 
	C1533.051514,3826.007568 1414.123779,3826.035645 1398.060913,3828.788086 
	C1397.385742,3831.012451 1396.541748,3833.484619 1395.883545,3836.005127 
	C1361.098999,3969.186279 1326.369995,4102.381836 1291.545654,4235.552734 
	C1269.508057,4319.827148 1247.330933,4404.063965 1223.536865,4490.094727 
	C1223.519165,4495.511719 1217.645508,4500.485840 1222.220093,4506.700195 
	C1227.680298,4501.283203 1231.341187,4495.414062 1232.947388,4485.323242 
M2506.208252,4604.905273 
	C2412.310547,4349.715820 2318.417969,4094.524170 2224.469238,3839.353271 
	C2222.912354,3835.124268 2220.673340,3831.146484 2218.821533,3827.197754 
	C2170.587402,3827.197754 2123.345459,3827.194336 2076.103760,3827.237061 
	C2075.541260,3827.237549 2074.931396,3827.771973 2074.430908,3828.167480 
	C2073.955566,3828.543701 2073.594727,3829.064209 2072.793457,3829.954590 
	C2076.741211,3837.383789 2080.697021,3845.039551 2084.839844,3852.593018 
	C2199.988770,4062.540771 2315.136963,4272.489258 2430.338135,4482.408691 
	C2453.373291,4524.383789 2476.620361,4566.242188 2499.829346,4611.023438 
	C2505.591553,4621.173340 2511.354004,4631.322754 2517.116211,4641.472656 
	C2516.505615,4629.275391 2513.162598,4618.207031 2506.208252,4604.905273 
M2127.500488,5135.283691 
	C2130.794189,5149.245117 2134.087646,5163.206543 2137.381104,5177.167969 
	C2136.090332,5161.960938 2138.987793,5146.453613 2133.356445,5128.302246 
	C2131.626953,5111.083008 2129.929688,5093.860352 2128.160645,5076.645508 
	C2125.031006,5046.187988 2121.945801,5015.726074 2118.682129,4985.283203 
	C2114.000244,4941.609863 2109.067383,4897.963379 2104.440674,4854.284180 
	C2099.813477,4810.604004 2095.561523,4766.884766 2090.904785,4723.207520 
	C2086.248047,4679.531738 2081.150635,4635.902344 2076.510498,4592.224609 
	C2071.800049,4547.884766 2067.560303,4503.494629 2062.846191,4459.154785 
	C2056.936279,4403.565918 2050.620361,4348.020508 2044.721924,4292.430664 
	C2037.418457,4223.600586 2030.416382,4154.739746 2023.186890,4085.902100 
	C2015.331665,4011.108154 2007.404175,3936.321777 1999.404053,3861.543213 
	C1998.207642,3850.359619 1996.442017,3839.236816 1994.857910,3827.479248 
	C1947.134399,3827.479248 1900.046875,3827.479248 1851.727783,3827.479248 
	C1852.267334,3832.765625 1852.321899,3837.301514 1853.240845,3841.655029 
	C1859.285034,3870.294434 1865.589233,3898.878662 1871.671387,3927.510010 
	C1889.782227,4012.765625 1907.794189,4098.041992 1925.911499,4183.296387 
	C1945.133057,4273.747559 1964.474487,4364.172852 1983.683838,4454.626465 
	C2004.415527,4552.248047 2025.022705,4649.895020 2045.743652,4747.518555 
	C2065.219727,4839.277344 2084.729492,4931.028320 2104.314453,5022.764160 
	C2112.092773,5059.198242 2120.113037,5095.581543 2127.500488,5135.283691 
M2711.752197,3322.546143 
	C2727.813477,3371.142334 2743.850586,3419.746582 2759.942627,3468.332520 
	C2779.381836,3527.026123 2798.959717,3585.673828 2818.221924,3644.425293 
	C2820.777588,3652.220947 2824.170654,3658.702393 2830.481689,3664.359131 
	C2862.197021,3692.785156 2893.528809,3721.639648 2924.927490,3750.417725 
	C2930.070557,3755.131836 2935.656982,3757.473389 2942.854492,3757.333984 
	C2962.163086,3756.960449 2981.483643,3757.274170 3000.798340,3757.121094 
	C3003.839844,3757.096924 3006.873779,3756.062744 3010.183350,3755.444580 
	C3010.452637,3751.533203 3010.786865,3748.945557 3010.786377,3746.357910 
	C3010.755371,3467.956543 3010.699707,3189.555420 3010.624268,2911.154053 
	C3010.624023,2910.509521 3010.432617,2909.790527 3010.103516,2909.242676 
	C3009.804199,2908.744629 3009.194824,2908.432617 3007.600342,2907.102783 
	C2998.443115,2907.443604 2989.666016,2912.503418 2980.499756,2915.816406 
	C2866.077637,2957.173584 2751.693359,2998.635010 2637.369385,3040.262207 
	C2632.071533,3042.191162 2625.454834,3042.376465 2621.452637,3049.437744 
	C2651.160400,3139.040771 2681.066162,3229.241211 2711.752197,3322.546143 
M1719.272949,4077.544189 
	C1733.564331,3999.678711 1747.873535,3921.816406 1762.106445,3843.940186 
	C1763.033081,3838.870117 1763.373291,3833.692627 1763.982544,3828.596436 
	C1748.044434,3826.358643 1661.741577,3825.863281 1636.769775,3827.780762 
	C1636.199707,3830.737061 1635.200317,3833.891357 1635.041870,3837.087402 
	C1634.285767,3852.350830 1633.611938,3867.621094 1633.175049,3882.896484 
	C1631.729614,3933.435791 1630.450806,3983.979492 1629.010376,4034.518799 
	C1627.494263,4087.719482 1625.810303,4140.915039 1624.311768,4194.115723 
	C1623.636841,4218.071777 1623.446533,4242.041992 1622.665039,4265.993652 
	C1620.951904,4318.495605 1618.889648,4370.986328 1617.180420,4423.488281 
	C1615.492065,4475.347168 1613.774902,4527.208984 1612.658325,4579.082031 
	C1612.197266,4600.504883 1610.286865,4622.006348 1613.587036,4643.520508 
	C1617.759155,4626.792480 1620.966553,4609.971191 1624.083984,4593.132812 
	C1635.588867,4530.989258 1647.091553,4468.845215 1658.542114,4406.691895 
	C1669.750488,4345.853516 1680.850342,4284.995117 1692.080688,4224.160645 
	C1700.896118,4176.407715 1709.838135,4128.677734 1719.272949,4077.544189 
M789.827148,3663.955322 
	C792.110229,3657.009033 794.370605,3650.054932 796.682495,3643.118164 
	C799.205078,3635.549316 802.000916,3628.062500 804.256592,3620.415771 
	C806.219971,3613.760254 810.402405,3607.510254 809.170715,3600.230957 
	C807.961914,3599.860352 807.371216,3599.490234 806.827515,3599.549561 
	C805.520264,3599.692139 804.106262,3599.773193 802.959229,3600.335938 
	C699.697327,3650.966797 596.456665,3701.640625 493.219940,3752.322754 
	C492.666962,3752.594238 491.945709,3752.922852 491.745972,3753.407471 
	C491.521118,3753.953613 491.798645,3754.707031 491.857666,3755.370117 
	C507.845428,3757.905029 741.897339,3757.959229 759.421509,3755.270752 
	C769.086609,3726.133057 778.905945,3696.530762 789.827148,3663.955322 
M2489.090820,2065.992188 
	C2489.155518,2086.605469 2489.213867,2107.218750 2489.320312,2127.831787 
	C2489.322998,2128.354980 2489.761230,2128.969238 2490.164795,2129.372070 
	C2490.623047,2129.829102 2491.271729,2130.095947 2491.838379,2130.447998 
	C2493.022461,2129.982178 2494.535645,2129.836182 2495.343750,2129.004883 
	C2535.650146,2087.535645 2575.901855,2046.013428 2616.129883,2004.468384 
	C2618.269043,2002.259277 2621.640137,2000.292480 2618.271484,1995.581909 
	C2597.610107,1995.581909 2576.381104,1995.289062 2555.164062,1995.663452 
	C2533.549316,1996.044922 2511.809570,1994.010498 2489.090576,1997.197144 
	C2489.090576,2019.624878 2489.090576,2040.812866 2489.090820,2065.992188 
M1016.131042,1977.546753 
	C1012.833801,1974.812988 1009.536560,1972.079224 1005.432739,1968.676636 
	C1006.996643,1979.898560 1007.459351,1982.389404 1013.179871,1985.551025 
	C1016.995117,1987.659668 1018.567017,1984.115479 1016.131042,1977.546753 
M2802.533691,1902.643433 
	C2802.533691,1902.643433 2801.850342,1902.243164 2801.850342,1902.243164 
	C2801.850342,1902.243164 2801.990723,1903.260742 2802.533691,1902.643433 
z"/>
<path fill="#FFFFFF" opacity="1.000000" stroke="none" 
	d="
M7176.000000,3754.250000 
	C7170.051758,3756.395996 7164.103027,3757.136230 7158.154785,3757.138184 
	C6972.156738,3757.198730 6786.159180,3757.187988 6600.161133,3757.187988 
	C6594.218262,3757.187988 6588.275391,3757.187744 6581.151367,3757.187744 
	C6567.326172,3715.634766 6555.819336,3674.108154 6543.431641,3632.857910 
	C6531.197754,3592.118164 6518.882812,3551.402588 6506.728516,3511.092041 
	C6487.972656,3508.267334 6342.407715,3507.352539 6224.062500,3509.229980 
	C6220.206055,3509.291016 6216.358887,3509.940430 6212.089355,3510.356445 
	C6209.484375,3526.997803 6211.155273,3542.945312 6210.860352,3558.808105 
	C6210.562988,3574.802246 6210.795410,3590.806396 6210.795410,3606.806152 
	C6210.795410,3623.472656 6210.795410,3640.139160 6210.795410,3656.805664 
	C6210.795410,3672.805420 6210.795410,3688.805420 6210.795410,3704.805176 
	C6210.795410,3720.737793 6210.795410,3736.670410 6210.795410,3751.437744 
	C6205.511719,3757.487549 6199.821289,3755.550293 6194.793945,3755.565674 
	C6145.461914,3755.717285 6096.128906,3755.658447 6046.796387,3755.658447 
	C5924.797852,3755.658691 5802.798828,3755.658447 5680.800293,3755.658447 
	C5673.504883,3755.658447 5666.209473,3755.658203 5657.610352,3755.658203 
	C5656.917480,3750.859619 5655.764160,3746.526123 5655.747559,3742.188477 
	C5655.604492,3704.189453 5655.726562,3666.189209 5655.589355,3628.190186 
	C5655.570801,3623.120850 5656.752441,3617.808594 5653.951172,3611.447998 
	C5651.235352,3612.827881 5648.904297,3613.607178 5647.048340,3615.013184 
	C5552.447754,3686.677979 5445.437988,3730.499756 5330.394531,3756.374756 
	C5279.004883,3767.932861 5227.080078,3775.790527 5174.640137,3780.877197 
	C5098.244141,3788.287842 5021.725098,3789.973145 4945.129883,3786.667236 
	C4843.042969,3782.260254 4742.209961,3769.049316 4643.903320,3739.991211 
	C4559.009766,3714.897705 4479.187988,3679.048828 4406.947754,3627.340332 
	C4346.209961,3583.864746 4294.194824,3531.830078 4252.735352,3469.498291 
	C4251.263672,3467.286377 4249.638672,3465.173340 4248.012207,3463.070557 
	C4247.695801,3462.661377 4247.041992,3462.513672 4245.417480,3461.639160 
	C4242.230957,3467.111816 4244.031738,3473.085449 4243.737793,3478.616943 
	C4243.419922,3484.599854 4243.667480,3490.612793 4243.667480,3496.612793 
	C4243.667969,3503.279297 4243.667480,3509.946045 4243.667480,3516.612549 
	C4243.667480,3522.612549 4243.667480,3528.612305 4243.667480,3534.612305 
	C4243.667480,3540.612305 4243.667480,3546.612061 4243.667480,3552.612061 
	C4243.667480,3558.612061 4243.667480,3564.611816 4243.667480,3570.611816 
	C4243.667480,3576.611816 4243.667480,3582.611816 4243.667480,3588.611816 
	C4243.667480,3595.278320 4243.667480,3601.945068 4243.667480,3608.611572 
	C4243.667480,3614.611572 4243.667480,3620.611328 4243.667480,3626.611328 
	C4243.667480,3632.611328 4243.667480,3638.611084 4243.667480,3644.611084 
	C4243.667480,3650.611084 4243.667480,3656.610840 4243.667480,3662.610840 
	C4243.667480,3668.610840 4243.667480,3674.610596 4243.667480,3680.610596 
	C4243.667480,3686.610596 4243.667480,3692.610596 4243.667480,3698.610596 
	C4243.667480,3705.277100 4243.667480,3711.943848 4243.667480,3718.610352 
	C4243.667480,3724.610352 4243.667480,3730.610107 4243.667480,3736.610107 
	C4243.667480,3742.516602 4243.667480,3748.423340 4243.667480,3754.967773 
	C4236.005371,3758.558594 4228.621094,3757.100830 4221.587402,3757.110352 
	C4134.921875,3757.229248 4048.256104,3757.187988 3961.590332,3757.187988 
	C3897.591064,3757.187988 3833.591553,3757.187988 3769.592285,3757.187988 
	C3762.945068,3757.187988 3756.297852,3757.187988 3748.770996,3757.187988 
	C3503.374512,3473.663086 3257.982422,3190.096191 3011.327881,2904.892090 
	C3093.993896,2873.803223 3175.446777,2845.467773 3257.007812,2815.027100 
	C3253.466309,2810.206299 3249.351807,2811.991699 3245.953613,2811.744629 
	C3241.311523,2811.407959 3236.626465,2811.658936 3231.959961,2811.658447 
	C3227.959961,2811.657959 3223.959961,2811.658203 3219.959961,2811.658203 
	C3215.293457,2811.658203 3210.626709,2811.658203 3205.960205,2811.658203 
	C3201.960205,2811.658203 3197.960205,2811.658203 3193.960205,2811.658203 
	C3189.960205,2811.658203 3185.960449,2811.658203 3181.960449,2811.658203 
	C3177.293701,2811.658203 3172.627197,2811.658203 3167.960449,2811.658203 
	C3163.960449,2811.658203 3159.960693,2811.658203 3155.960693,2811.658203 
	C3151.294189,2811.658203 3146.627441,2811.658203 3141.960938,2811.658203 
	C3137.960938,2811.658203 3133.960938,2811.658203 3129.960938,2811.658203 
	C3125.294434,2811.658203 3120.627686,2811.658203 3115.961182,2811.658203 
	C3111.961182,2811.658203 3107.961182,2811.658203 3103.961182,2811.658203 
	C3099.961182,2811.658203 3095.961426,2811.658203 3091.961426,2811.658203 
	C3087.294922,2811.658203 3082.628174,2811.658203 3077.961670,2811.658203 
	C3073.961670,2811.658203 3069.961670,2811.658203 3065.961670,2811.658203 
	C3061.295166,2811.658203 3056.628418,2811.658203 3051.961914,2811.658203 
	C3047.961914,2811.658203 3043.961914,2811.658203 3039.961914,2811.658203 
	C3035.961914,2811.658203 3031.962158,2811.658203 3027.962158,2811.658203 
	C3023.295410,2811.658203 3018.628906,2811.658203 3013.962158,2811.658203 
	C3009.962158,2811.658203 3005.962402,2811.658203 3001.962402,2811.658203 
	C2997.295898,2811.658203 2992.629150,2811.658203 2987.962646,2811.658203 
	C2983.962646,2811.658203 2979.962646,2811.658203 2975.962646,2811.658203 
	C2971.962646,2811.658203 2967.962891,2811.658203 2963.962891,2811.658203 
	C2959.296143,2811.658203 2954.629639,2811.658203 2949.962891,2811.658203 
	C2945.962891,2811.658203 2941.963135,2811.658203 2937.963135,2811.658203 
	C2933.296631,2811.658203 2928.629883,2811.658203 2923.963379,2811.658203 
	C2919.963379,2811.658203 2915.963379,2811.658203 2911.963379,2811.658203 
	C2907.296875,2811.658203 2902.630127,2811.658203 2897.963623,2811.658203 
	C2893.963623,2811.658203 2889.963623,2811.658203 2885.963623,2811.658203 
	C2881.963623,2811.658203 2877.963867,2811.658203 2873.963867,2811.658203 
	C2869.297119,2811.658203 2864.630615,2811.658203 2859.963867,2811.658203 
	C2855.963867,2811.658203 2851.964111,2811.658203 2847.964111,2811.658203 
	C2843.297607,2811.658203 2838.630859,2811.658203 2833.964355,2811.658203 
	C2829.964355,2811.658203 2825.964355,2811.658203 2821.964355,2811.658203 
	C2817.964355,2811.658203 2813.964600,2811.658203 2809.964600,2811.658203 
	C2805.297852,2811.658203 2800.631348,2811.658203 2795.964600,2811.658203 
	C2791.964600,2811.658203 2787.964844,2811.658203 2783.964844,2811.658203 
	C2779.298340,2811.658203 2774.631592,2811.658203 2769.965088,2811.658203 
	C2765.965088,2811.658203 2761.965088,2811.658203 2757.965088,2811.658203 
	C2753.965088,2811.658203 2749.965332,2811.658203 2745.965332,2811.658203 
	C2741.298584,2811.658203 2736.632080,2811.658203 2731.965332,2811.658203 
	C2727.965332,2811.658203 2723.965576,2811.658203 2719.965576,2811.658203 
	C2715.298828,2811.658203 2710.632324,2811.658203 2705.965576,2811.658203 
	C2701.965576,2811.658203 2697.965820,2811.658203 2693.965820,2811.658203 
	C2689.965820,2811.658203 2685.966064,2811.658203 2681.966064,2811.658203 
	C2677.299316,2811.658203 2672.632812,2811.658203 2667.966064,2811.658203 
	C2663.966064,2811.658203 2659.966309,2811.658203 2655.966309,2811.658203 
	C2651.299561,2811.658203 2646.633057,2811.658203 2641.966309,2811.658203 
	C2637.966309,2811.658203 2633.966553,2811.658203 2629.966553,2811.658203 
	C2625.300049,2811.658203 2620.633301,2811.658203 2615.966797,2811.658203 
	C2611.966797,2811.658203 2607.966797,2811.658203 2603.966797,2811.658203 
	C2599.966797,2811.658203 2595.967041,2811.658203 2591.967041,2811.658203 
	C2587.300293,2811.658203 2582.633789,2811.658203 2577.967041,2811.658203 
	C2573.967041,2811.658203 2569.967285,2811.658447 2565.967285,2811.658203 
	C2561.300537,2811.658203 2556.634033,2811.657715 2551.967285,2811.657715 
	C2548.022461,2811.657715 2544.077637,2811.657715 2539.184326,2811.657715 
	C2536.976562,2806.421387 2534.636963,2801.785156 2533.026123,2796.908447 
	C2519.668701,2756.472900 2506.466797,2715.986328 2493.165771,2675.531982 
	C2490.440430,2667.242920 2489.062500,2658.880127 2489.101318,2650.063477 
	C2489.316895,2601.398438 2489.447998,2552.729492 2489.013672,2504.067383 
	C2488.919678,2493.541016 2491.642090,2484.907471 2497.439453,2476.227783 
	C2549.611084,2398.115234 2601.482178,2319.802002 2653.445801,2241.550537 
	C2704.302490,2164.966064 2755.159912,2088.381836 2806.031738,2011.807373 
	C2809.336182,2006.833496 2812.768311,2001.944458 2815.878418,1997.399658 
	C2832.384277,1995.256836 2952.708740,1994.633423 2985.532227,1996.527954 
	C3046.229736,2067.668457 3107.609863,2139.582764 3168.960449,2211.521973 
	C3230.365967,2283.525391 3291.744385,2355.551758 3353.130615,2427.571777 
	C3414.083984,2499.084473 3475.008789,2570.621582 3535.990723,2642.110107 
	C3597.284912,2713.964600 3658.357178,2786.011475 3719.605225,2857.270264 
	C3721.659180,2856.406006 3722.416992,2856.287109 3722.845703,2855.847168 
	C3723.232178,2855.450439 3723.420654,2854.702148 3723.421143,2854.108887 
	C3723.622803,2569.455078 3723.800781,2284.801025 3724.004883,2000.147217 
	C3724.005371,1999.547241 3724.383301,1998.947632 3725.021240,1997.050659 
	C3728.165039,1996.645508 3731.891846,1995.965210 3735.646484,1995.736084 
	C3739.631592,1995.492920 3743.642822,1995.676025 3747.642822,1995.676025 
	C4059.639404,1995.675781 4371.635742,1995.675903 4683.632324,1995.675903 
	C4690.860840,1995.675903 4698.089844,1995.675903 4706.368164,1995.675903 
	C4706.882812,2000.671997 4707.572754,2004.456909 4707.609375,2008.248169 
	C4707.745605,2022.246826 4707.667480,2036.247437 4707.667480,2050.247314 
	C4707.667480,2383.576904 4707.670410,2716.906494 4707.664551,3050.236084 
	C4707.663574,3093.904541 4714.086426,3136.615479 4728.754395,3177.739502 
	C4749.702637,3236.468506 4784.143555,3285.227295 4837.342285,3319.383789 
	C4870.376953,3340.593750 4906.862793,3353.067139 4945.299316,3359.108887 
	C4996.324219,3367.129150 5047.443848,3367.079102 5098.363281,3356.857178 
	C5203.128418,3335.826172 5271.037598,3272.612549 5307.212891,3173.742188 
	C5323.165039,3130.140869 5328.385742,3084.546631 5328.367188,3038.240234 
	C5328.286133,2837.575684 5328.332520,2636.911377 5328.332520,2436.246826 
	C5328.332520,2296.915039 5328.332520,2157.583252 5328.332520,2018.251587 
	C5328.332520,2011.660400 5328.332520,2005.069214 5328.332520,1999.166992 
	C5334.408691,1993.822144 5340.662109,1995.782837 5346.363770,1995.771484 
	C5419.029785,1995.626099 5491.695312,1995.675903 5564.361328,1995.675903 
	C5664.360352,1995.675903 5764.358887,1995.675903 5864.357910,1995.675903 
	C6081.003418,1995.675903 6297.648438,1995.672241 6514.293945,1995.690430 
	C6522.213867,1995.691040 6530.133301,1995.905151 6538.155762,1996.021240 
	C6553.428223,2037.602295 6568.391113,2078.106934 6583.190430,2118.671631 
	C6693.577637,2421.240723 6803.951172,2723.815430 6914.291992,3026.401611 
	C6997.732910,3255.220703 7081.092773,3484.069336 7164.687500,3712.832031 
	C7166.878906,3718.830566 7166.989746,3726.239258 7174.720703,3729.115967 
	C7176.000000,3736.166748 7176.000000,3744.333252 7176.000000,3754.250000 
M6301.999023,3113.244385 
	C6326.635254,3113.243164 6351.272461,3113.313965 6375.907715,3113.161133 
	C6379.475098,3113.138672 6383.036621,3112.044434 6387.280762,3111.332031 
	C6385.266113,3104.194092 6383.695801,3098.448730 6382.023438,3092.733643 
	C6369.326660,3049.360596 6356.648438,3005.982178 6343.894531,2962.626221 
	C6298.871094,2809.571289 6253.825195,2656.523193 6208.750000,2503.483643 
	C6207.443359,2499.048340 6206.140625,2494.506104 6203.964844,2490.485352 
	C6203.114258,2488.913574 6199.857910,2488.643311 6196.475586,2487.292236 
	C6196.137207,2493.343018 6195.624023,2497.845459 6195.672852,2502.341553 
	C6196.657715,2592.833008 6197.724609,2683.323486 6198.734375,2773.814453 
	C6199.090332,2805.760986 6199.426758,2837.708252 6199.613281,2869.655762 
	C6199.911621,2920.917480 6200.021484,2972.180176 6200.325195,3023.441650 
	C6200.479004,3049.397461 6200.859863,3075.351807 6201.199219,3101.306152 
	C6201.241211,3104.520264 6201.659668,3107.729980 6201.855469,3110.301514 
	C6203.959473,3111.503418 6205.061523,3112.678711 6206.172363,3112.687988 
	C6236.780762,3112.946045 6267.390137,3113.085449 6301.999023,3113.244385 
z"/>
<path fill="#FEFEFE" opacity="1.000000" stroke="none" 
	d="
M4.000000,1997.333252 
	C11.326889,1995.890259 18.653772,1995.684937 25.980665,1995.684570 
	C325.782349,1995.668457 625.583984,1995.670776 925.385681,1995.670776 
	C931.359314,1995.670776 937.332947,1995.670776 944.092407,1995.670776 
	C946.762817,1999.385742 949.627014,2002.939697 952.032654,2006.780762 
	C993.013672,2072.217285 1033.833252,2137.754883 1074.997925,2203.075195 
	C1080.554688,2211.892822 1082.994873,2220.691406 1082.973022,2231.147217 
	C1082.708496,2357.729736 1082.801514,2484.312744 1082.801270,2610.895752 
	C1082.801270,2616.153320 1082.801270,2621.410889 1082.801270,2626.796387 
	C1079.520630,2627.235840 1077.475342,2628.068848 1075.710449,2627.667480 
	C761.857056,2556.324219 448.023712,2484.892334 134.262283,2413.480713 
	C128.184341,2393.906006 122.342308,2375.574219 116.797348,2357.153320 
	C82.870087,2244.445557 49.086823,2131.694092 14.911170,2019.061768 
	C13.120214,2013.159424 14.035110,2005.313110 5.320461,2002.931885 
	C4.000000,2002.222168 4.000000,2000.444458 4.000000,1997.333252 
z"/>
<path fill="#FEFEFE" opacity="1.000000" stroke="none" 
	d="
M4.000000,3753.000000 
	C9.090171,3754.001221 11.138824,3750.687256 13.120181,3746.939941 
	C22.139565,3729.881836 31.232128,3712.862305 40.291679,3695.825439 
	C96.832542,3589.494141 153.365616,3483.158691 209.935242,3376.842773 
	C212.117752,3372.740967 214.646988,3368.823730 217.585312,3363.855469 
	C315.734741,3363.855469 414.218994,3363.855469 513.702454,3363.855469 
	C514.452393,3359.208252 515.368164,3355.501953 515.578674,3351.756592 
	C515.877502,3346.442139 515.658325,3341.098877 515.658325,3335.767822 
	C515.658569,3101.869629 515.657410,2867.971191 515.664062,2634.072998 
	C515.664246,2626.896973 515.745178,2619.720703 515.787048,2612.781738 
	C518.457764,2612.398926 519.994080,2611.659180 521.001831,2612.107666 
	C700.266052,2691.870361 879.492798,2771.717773 1059.822998,2852.052979 
	C1058.040527,2859.009277 1056.712280,2865.330078 1054.804321,2871.470703 
	C1017.113770,2992.778320 979.358948,3114.066162 941.609985,3235.355469 
	C931.924011,3266.477051 921.601624,3297.419922 912.836426,3328.798096 
	C909.660156,3340.168701 903.609497,3346.829834 893.804932,3352.490967 
	C779.093323,3418.730957 664.561279,3485.281494 549.980530,3551.748047 
	C435.978119,3617.878906 321.969452,3683.999268 207.982529,3750.156982 
	C201.022171,3754.196777 194.156067,3757.382812 185.613251,3757.333984 
	C128.307968,3757.007324 71.000313,3757.099365 13.693488,3757.013428 
	C11.709639,3757.010498 9.726479,3756.562012 5.871504,3756.160645 
	C4.000000,3756.000000 4.000000,3754.000000 4.000000,3753.000000 
z"/>
<path fill="#FDFDFD" opacity="1.000000" stroke="none" 
	d="
M1390.666992,2444.012939 
	C1439.815063,2530.187744 1488.950317,2616.370117 1538.117188,2702.534180 
	C1559.566528,2740.123779 1581.111206,2777.658691 1602.533081,2815.263916 
	C1605.738892,2820.891846 1608.507690,2826.768799 1612.604126,2834.712646 
	C1495.766113,2825.003174 1381.274048,2815.488281 1265.697266,2806.290527 
	C1263.514648,2806.485596 1262.416382,2806.363770 1261.318115,2806.241943 
	C1262.238647,2806.794922 1263.159058,2807.347656 1264.079590,2807.900391 
	C1264.686157,2813.845215 1270.248413,2814.075195 1273.970093,2816.168457 
	C1359.114746,2864.060059 1444.319214,2911.845215 1529.503662,2959.666260 
	C1534.706177,2962.586914 1539.836914,2965.635498 1546.091553,2969.255371 
	C1544.932495,2974.159424 1544.138550,2979.254883 1542.519897,2984.072998 
	C1534.692993,3007.371338 1526.409180,3030.518555 1518.796753,3053.885498 
	C1515.982422,3062.523926 1511.268555,3068.721680 1503.637451,3073.800293 
	C1467.106445,3098.114258 1430.881836,3122.888428 1394.543335,3147.491699 
	C1296.535645,3213.848145 1198.542358,3280.226074 1100.483521,3346.507080 
	C1092.808228,3351.695557 1084.670898,3356.200195 1074.671631,3362.338379 
	C1070.611084,3366.294434 1065.425781,3366.331787 1066.367920,3372.936279 
	C1069.846924,3371.520752 1072.923706,3370.268799 1076.000488,3369.017090 
	C1133.439453,3352.133301 1190.896362,3335.310059 1248.312500,3318.349365 
	C1310.834351,3299.879883 1373.316650,3281.276611 1435.825073,3262.762207 
	C1438.811646,3261.877441 1441.884277,3261.283936 1446.188843,3260.249023 
	C1444.475586,3275.019287 1438.603149,3286.890625 1434.389648,3299.110352 
	C1374.973022,3471.425537 1315.210938,3643.621338 1255.786987,3815.934082 
	C1251.937134,3827.097412 1246.311401,3835.283936 1236.114380,3842.057373 
	C1053.604492,3963.297363 871.366394,4084.946289 689.045227,4206.470215 
	C684.299438,4209.633789 679.274109,4212.377441 674.346863,4215.336426 
	C673.575989,4213.781250 673.122864,4213.207520 673.028442,4212.580078 
	C672.934448,4211.956055 673.122864,4211.252441 673.325073,4210.628418 
	C673.733154,4209.368652 674.295471,4208.157715 674.684814,4206.893555 
	C675.469238,4204.346680 676.091675,4201.748047 676.934570,4199.222168 
	C756.116028,3961.873779 835.311829,3724.530273 914.509583,3487.187500 
	C914.720215,3486.556641 914.999146,3485.948242 915.199097,3485.314453 
	C915.399597,3484.679688 915.578735,3484.033447 915.697693,3483.379395 
	C915.816162,3482.728027 915.891907,3482.062256 915.906067,3481.400879 
	C915.919983,3480.754883 915.942932,3480.072998 915.758667,3479.468750 
	C915.568665,3478.846436 915.133423,3478.299072 914.414307,3477.026855 
	C906.774109,3480.536133 898.978149,3483.911377 891.359680,3487.648438 
	C811.303711,3526.918457 731.279907,3566.253906 651.239563,3605.555664 
	C546.710815,3656.882324 442.146393,3708.136475 337.694916,3759.620117 
	C329.031647,3763.889893 319.087860,3765.067871 308.851318,3771.142822 
	C305.404999,3769.769775 304.360443,3768.377930 303.315918,3766.985840 
	C351.507843,3738.963623 399.671967,3710.893555 447.896759,3682.927979 
	C613.696716,3586.781250 779.468201,3490.584717 945.447021,3394.747314 
	C956.055969,3388.621582 961.619934,3380.978516 965.216003,3369.337891 
	C1019.978943,3192.068604 1075.228271,3014.949707 1130.348022,2837.790527 
	C1132.112671,2832.118652 1133.708008,2826.394043 1135.363647,2820.756836 
	C1132.125977,2814.428711 1125.707642,2813.675537 1120.489258,2811.338135 
	C1008.187866,2761.042480 895.836365,2710.858887 783.503174,2660.634277 
	C739.180908,2640.817871 694.879150,2620.955566 649.221741,2599.178955 
	C647.901245,2596.314941 647.927124,2595.385742 647.953064,2594.457031 
	C699.902588,2606.118164 751.881042,2617.652344 803.795959,2629.465820 
	C928.376526,2657.815430 1052.926636,2686.298584 1177.498169,2714.688477 
	C1178.742798,2714.972168 1180.108887,2714.723633 1182.402588,2714.723633 
	C1183.965820,2710.851074 1186.049805,2706.737549 1187.320312,2702.386475 
	C1214.921387,2607.867920 1242.274170,2513.276123 1270.177856,2418.847168 
	C1273.324707,2408.197266 1271.717285,2400.214355 1265.915405,2390.975830 
	C1185.524658,2262.971680 1105.498169,2134.738770 1025.395996,2006.553467 
	C1021.537537,2000.378784 1017.803162,1994.126587 1012.997009,1986.248291 
	C1017.371765,1985.679932 1021.003845,1984.031616 1022.710754,1985.198853 
	C1028.725098,1989.311157 1034.148193,1994.309570 1039.672852,1999.113281 
	C1134.185669,2081.291260 1228.678101,2163.492920 1323.184692,2245.677979 
	C1327.150024,2249.126465 1331.208496,2252.468018 1335.416992,2256.022705 
	C1341.581665,2253.056885 1341.425659,2247.030518 1342.944824,2242.545166 
	C1370.052002,2162.518311 1396.876953,2082.395996 1423.771729,2002.297119 
	C1426.949463,1992.833496 1429.769775,1983.221069 1433.517334,1973.986572 
	C1436.457397,1966.742188 1436.155151,1959.896484 1434.407593,1952.541138 
	C1419.488770,1889.752075 1404.690674,1826.933960 1389.940430,1764.104858 
	C1359.976318,1636.471436 1330.067017,1508.824829 1300.129639,1381.185059 
	C1289.646484,1336.489502 1279.147461,1291.797852 1269.816162,1245.345703 
	C1272.715088,1243.681519 1274.453735,1243.776123 1276.192261,1243.870605 
	C1290.338623,1272.473755 1304.632568,1301.005005 1318.600098,1329.695190 
	C1346.252563,1386.495239 1373.661255,1443.413940 1401.287231,1500.226807 
	C1436.476929,1572.594238 1471.765503,1644.913818 1507.072876,1717.223877 
	C1509.576538,1722.351074 1512.584351,1727.232056 1516.877686,1734.965576 
	C1525.109985,1713.049438 1530.558350,1693.562134 1536.661133,1674.295410 
	C1542.884521,1654.647339 1549.399902,1635.091919 1555.705322,1615.469604 
	C1562.213013,1595.217651 1568.648438,1574.942383 1575.066162,1554.661743 
	C1581.287720,1535.000977 1587.387573,1515.301392 1593.650146,1495.653809 
	C1599.905518,1476.028564 1606.296509,1456.446411 1612.926636,1435.921021 
	C1618.189331,1435.542358 1623.380737,1434.832153 1628.570312,1434.845825 
	C1711.818848,1435.064697 1795.067383,1435.356812 1878.315674,1435.673462 
	C1925.598755,1435.853271 1972.881714,1436.109253 2020.164673,1436.325439 
	C2024.753540,1436.346436 2029.342651,1436.328369 2034.835327,1436.328369 
	C2037.067017,1427.771729 2039.056519,1420.194702 2041.019287,1412.610718 
	C2093.673584,1209.157104 2146.325439,1005.703003 2198.974121,802.247986 
	C2200.306641,797.098755 2201.598877,791.939087 2204.533691,784.954407 
	C2207.738281,783.598206 2209.319092,784.071960 2210.900146,784.545715 
	C2204.987549,853.475525 2199.007324,922.399536 2193.188232,991.337280 
	C2189.829346,1031.125488 2186.890625,1070.949219 2183.477051,1110.732544 
	C2178.869873,1164.424805 2173.878662,1218.083984 2169.260498,1271.775391 
	C2165.896729,1310.886597 2162.981445,1350.036499 2159.660889,1389.151611 
	C2156.340332,1428.269165 2152.681152,1467.357910 2149.326172,1506.472534 
	C2146.142334,1543.594849 2143.234863,1580.740601 2140.069580,1617.864502 
	C2136.564941,1658.966431 2132.906006,1700.055176 2129.316406,1741.149780 
	C2129.142578,1743.140625 2129.003174,1745.134521 2128.829590,1747.125366 
	C2126.037109,1779.166382 2126.186523,1779.114258 2136.702881,1809.399536 
	C2186.219238,1951.996094 2235.646729,2094.623535 2285.104492,2237.240479 
	C2299.918457,2279.958496 2314.703125,2322.686523 2329.576172,2365.383789 
	C2331.073730,2369.683105 2333.092285,2373.801025 2334.737305,2377.691406 
	C2340.264404,2378.982178 2342.307129,2375.135742 2344.890137,2372.499268 
	C2374.710938,2342.062744 2404.546631,2311.640625 2434.261719,2281.101318 
	C2463.515869,2251.035645 2492.626709,2220.830322 2521.818604,2190.703857 
	C2574.639893,2136.191406 2627.435791,2081.654785 2680.317627,2027.201416 
	C2708.153809,1998.538086 2736.158691,1970.038574 2764.066406,1941.444580 
	C2769.643555,1935.730103 2775.125000,1929.921997 2782.873047,1924.396240 
	C2785.799805,1925.061768 2786.503906,1925.488037 2787.208008,1925.914429 
	C2770.924072,1951.031494 2754.867432,1976.299561 2738.316406,2001.239624 
	C2666.137695,2110.000977 2593.787354,2218.648438 2521.555176,2327.374268 
	C2478.437012,2392.277100 2435.420898,2457.248047 2392.359619,2522.188721 
	C2391.622803,2523.299561 2391.005371,2524.511719 2390.142822,2525.513184 
	C2383.950439,2532.702393 2382.572021,2540.090820 2386.468750,2549.330078 
	C2390.844971,2559.706543 2393.431641,2570.829590 2396.958252,2581.574707 
	C2427.458984,2674.506348 2457.988037,2767.429199 2488.551025,2860.340332 
	C2489.792969,2864.115723 2491.454834,2867.752441 2492.829590,2871.222412 
	C2493.740967,2871.651611 2494.332764,2871.962646 2494.949951,2872.211914 
	C2495.558838,2872.458008 2496.181641,2872.772705 2496.818359,2872.828613 
	C2498.806885,2873.002930 2500.804932,2873.164307 2502.799316,2873.164551 
	C2636.065918,2873.179443 2769.332520,2873.177979 2902.617432,2873.177979 
	C2903.187256,2879.213135 2898.498535,2879.129150 2894.959473,2880.414307 
	C2796.145020,2916.295410 2697.332275,2952.181152 2598.532227,2988.102295 
	C2580.489990,2994.662109 2562.504639,3001.377441 2543.410645,3008.420166 
	C2544.598145,3013.176514 2545.283936,3016.945068 2546.475098,3020.546631 
	C2584.916260,3136.779053 2623.443604,3252.983154 2661.876953,3369.218262 
	C2695.295898,3470.288086 2728.738037,3571.350342 2761.829590,3672.527588 
	C2766.085693,3685.541016 2772.580566,3695.941650 2782.890381,3705.281738 
	C2930.950195,3839.410156 3078.687012,3973.894775 3226.496826,4108.299316 
	C3256.053223,4135.175293 3285.588379,4162.074707 3315.745605,4192.225098 
	C3316.035889,4196.923828 3315.713623,4198.360840 3315.391113,4199.797852 
	C3262.218750,4169.473633 3209.014404,4139.205566 3155.880859,4108.812988 
	C3063.467529,4055.952637 2971.100830,4003.010010 2878.702148,3950.123535 
	C2872.968994,3946.842285 2867.127686,3943.750732 2859.544434,3939.586670 
	C2862.364746,3960.432617 2870.006592,3978.066650 2875.437500,3996.262451 
	C2880.762939,4014.104004 2886.504395,4031.821045 2892.028320,4049.603760 
	C2897.749023,4068.020020 2903.391602,4086.460938 2909.134277,4104.870117 
	C2914.678467,4122.644043 2920.313965,4140.388672 2925.896240,4158.150391 
	C2931.652832,4176.466797 2937.393555,4194.788086 2943.565674,4214.459473 
	C2936.822266,4214.414551 2933.289551,4210.615234 2929.382812,4207.901855 
	C2833.148438,4141.071777 2736.932129,4074.215576 2640.718018,4007.356201 
	C2553.248779,3946.573486 2465.785400,3885.782227 2378.317627,3824.997314 
	C2376.131592,3823.478271 2374.038086,3821.780029 2371.708984,3820.521973 
	C2361.173096,3814.830811 2355.722168,3806.079590 2352.008789,3794.554199 
	C2319.989990,3695.184814 2287.353027,3596.014648 2254.938965,3496.772705 
	C2253.770264,3493.194580 2253.000244,3489.486816 2251.388672,3483.336182 
	C2265.496094,3490.429932 2277.241699,3496.187256 2288.854736,3502.199219 
	C2400.489746,3559.990234 2512.101807,3617.825684 2623.729004,3675.632080 
	C2624.906006,3676.241699 2626.197998,3676.629883 2629.750732,3678.314453 
	C2633.510498,3679.041748 2634.955811,3678.575928 2636.400879,3678.109863 
	C2634.995361,3677.347168 2633.589600,3676.584717 2632.183838,3675.822266 
	C2628.818848,3671.882080 2625.827393,3667.533936 2622.034668,3664.061035 
	C2485.469727,3539.015381 2348.833496,3414.047363 2212.193604,3289.083252 
	C2199.417480,3277.398682 2186.623047,3265.732178 2173.696533,3254.215332 
	C2167.560059,3248.747559 2163.380615,3242.395264 2161.239258,3234.322998 
	C2148.443115,3186.077881 2135.400391,3137.898438 2122.478271,3089.686523 
	C2121.980713,3087.829834 2121.870361,3085.869141 2121.411865,3082.853760 
	C2152.059326,3068.543457 2183.488281,3056.072510 2214.553223,3042.788330 
	C2246.363770,3029.184326 2278.332031,3015.944580 2310.053467,3002.136963 
	C2340.915283,2988.703857 2372.447510,2976.741455 2407.016357,2959.935059 
	C2346.678467,2954.882812 2290.895264,2955.888672 2235.270752,2953.369141 
	C2179.457764,2950.841797 2123.583008,2949.683838 2067.008057,2947.902588 
	C2066.010498,2943.429932 2064.662354,2939.710938 2064.439941,2935.926270 
	C2063.893311,2926.619873 2064.688232,2917.169434 2063.418457,2907.987793 
	C2061.851807,2896.661621 2065.346191,2887.481934 2070.901367,2877.910156 
	C2129.058350,2777.709229 2186.908447,2677.330078 2244.833984,2576.994873 
	C2248.131836,2571.282227 2251.353760,2565.525391 2255.479980,2558.259521 
	C2250.970947,2557.427490 2247.618408,2555.697021 2245.402832,2556.639648 
	C2241.213379,2558.421143 2237.606934,2561.644775 2233.880127,2564.432129 
	C2159.714111,2619.898926 2085.576660,2675.403320 2011.386353,2730.837158 
	C2006.750610,2734.300537 2002.624268,2738.811523 1994.880859,2740.323730 
	C1994.836426,2735.895508 1994.589600,2732.248291 1994.795288,2728.626709 
	C1997.398804,2682.774902 2000.121582,2636.929443 2002.702271,2591.076416 
	C2004.647461,2556.514404 2006.314941,2521.937012 2008.315063,2487.378418 
	C2011.698975,2428.907959 2015.320068,2370.450928 2018.699341,2311.979980 
	C2020.581543,2279.415039 2022.063599,2246.826660 2023.925293,2214.260254 
	C2027.571777,2150.470215 2031.406372,2086.690918 2035.070679,2022.901978 
	C2038.086548,1970.401733 2040.995117,1917.895264 2043.865112,1865.386841 
	C2044.129517,1860.548340 2043.768799,1855.675781 2042.312256,1850.660034 
	C2026.500488,1893.079102 2014.081665,1936.311035 2000.527832,1979.166016 
	C1986.682495,2022.943115 1973.464233,2066.918457 1959.919312,2110.790771 
	C1946.573364,2154.018555 1933.183838,2197.233398 1919.773315,2240.441162 
	C1906.374023,2283.613037 1892.925171,2326.769531 1878.625244,2372.737793 
	C1875.419678,2365.718506 1873.108154,2361.343750 1871.373291,2356.751221 
	C1854.207520,2311.306885 1837.152222,2265.820801 1820.020386,2220.363525 
	C1817.985229,2214.963623 1815.681519,2209.664551 1813.730835,2204.879395 
	C1811.740356,2204.754639 1810.978394,2204.494629 1810.437988,2204.734619 
	C1809.930298,2204.959473 1809.512817,2205.660156 1809.300537,2206.240967 
	C1777.765869,2292.510010 1746.253296,2378.787109 1714.797241,2464.906982 
	C1708.674683,2465.822998 1708.503174,2460.964600 1707.113892,2457.616943 
	C1682.116455,2397.385010 1657.182495,2337.126953 1632.226685,2276.877930 
	C1603.199707,2206.800049 1574.165161,2136.725586 1544.550171,2063.859863 
	C1540.825684,2053.925537 1537.684937,2046.781006 1533.438599,2037.121460 
	C1529.515747,2048.824219 1533.810547,2056.296631 1536.860474,2063.951660 
	C1558.480347,2146.956055 1580.045898,2229.974609 1601.734985,2312.960938 
	C1625.778320,2404.954590 1649.873779,2496.934326 1674.156006,2588.864746 
	C1676.120361,2596.301758 1676.259644,2602.860596 1673.098511,2610.088623 
	C1666.788452,2624.517334 1661.873657,2639.558838 1654.259033,2655.265625 
	C1568.430298,2584.212646 1483.850220,2514.193604 1397.887695,2442.244629 
	C1393.827148,2438.700928 1391.149048,2437.086670 1388.057129,2434.772949 
	C1386.804321,2434.237549 1385.965454,2434.401367 1385.126587,2434.565186 
	C1385.625732,2435.487793 1386.124878,2436.410400 1386.681885,2438.414551 
	C1388.048950,2441.001465 1389.358032,2442.507324 1390.666992,2444.012939 
M2255.087891,2547.619141 
	C2254.065430,2548.438232 2252.449951,2549.082031 2252.145020,2550.113037 
	C2251.519775,2552.229248 2250.613281,2555.249756 2251.598389,2556.639648 
	C2253.414551,2559.202637 2256.284668,2558.108643 2257.864014,2555.700439 
	C2259.643799,2552.986572 2260.934082,2549.951660 2262.437256,2547.056396 
	C2260.808350,2546.668945 2259.179443,2546.281494 2255.087891,2547.619141 
M1525.837524,2029.942139 
	C1526.610596,2031.658081 1527.307251,2033.415771 1528.207886,2035.061890 
	C1528.445923,2035.497314 1529.483643,2035.946655 1529.856079,2035.767944 
	C1530.781128,2035.324341 1532.248413,2034.514526 1532.241699,2033.864624 
	C1532.193604,2029.148071 1531.856812,2024.419678 1525.570435,2023.701416 
	C1525.391846,2024.958496 1525.220947,2026.161011 1525.837524,2029.942139 
z"/>
<path fill="#FDFDFD" opacity="1.000000" stroke="none" 
	d="
M2711.362305,3320.993896 
	C2681.066162,3229.241211 2651.160400,3139.040771 2621.452637,3049.437744 
	C2625.454834,3042.376465 2632.071533,3042.191162 2637.369385,3040.262207 
	C2751.693359,2998.635010 2866.077637,2957.173584 2980.499756,2915.816406 
	C2989.666016,2912.503418 2998.443115,2907.443604 3007.600342,2907.102783 
	C3009.194824,2908.432617 3009.804199,2908.744629 3010.103516,2909.242676 
	C3010.432617,2909.790527 3010.624023,2910.509521 3010.624268,2911.154053 
	C3010.699707,3189.555420 3010.755371,3467.956543 3010.786377,3746.357910 
	C3010.786865,3748.945557 3010.452637,3751.533203 3010.183350,3755.444580 
	C3006.873779,3756.062744 3003.839844,3757.096924 3000.798340,3757.121094 
	C2981.483643,3757.274170 2962.163086,3756.960449 2942.854492,3757.333984 
	C2935.656982,3757.473389 2930.070557,3755.131836 2924.927490,3750.417725 
	C2893.528809,3721.639648 2862.197021,3692.785156 2830.481689,3664.359131 
	C2824.170654,3658.702393 2820.777588,3652.220947 2818.221924,3644.425293 
	C2798.959717,3585.673828 2779.381836,3527.026123 2759.942627,3468.332520 
	C2743.850586,3419.746582 2727.813477,3371.142334 2711.362305,3320.993896 
z"/>
<path fill="#FBFBFB" opacity="1.000000" stroke="none" 
	d="
M2128.022949,5131.987793 
	C2120.113037,5095.581543 2112.092773,5059.198242 2104.314453,5022.764160 
	C2084.729492,4931.028320 2065.219727,4839.277344 2045.743652,4747.518555 
	C2025.022705,4649.895020 2004.415527,4552.248047 1983.683838,4454.626465 
	C1964.474487,4364.172852 1945.133057,4273.747559 1925.911499,4183.296387 
	C1907.794189,4098.041992 1889.782227,4012.765625 1871.671387,3927.510010 
	C1865.589233,3898.878662 1859.285034,3870.294434 1853.240845,3841.655029 
	C1852.321899,3837.301514 1852.267334,3832.765625 1851.727783,3827.479248 
	C1900.046875,3827.479248 1947.134399,3827.479248 1994.857910,3827.479248 
	C1996.442017,3839.236816 1998.207642,3850.359619 1999.404053,3861.543213 
	C2007.404175,3936.321777 2015.331665,4011.108154 2023.186890,4085.902100 
	C2030.416382,4154.739746 2037.418457,4223.600586 2044.721924,4292.430664 
	C2050.620361,4348.020508 2056.936279,4403.565918 2062.846191,4459.154785 
	C2067.560303,4503.494629 2071.800049,4547.884766 2076.510498,4592.224609 
	C2081.150635,4635.902344 2086.248047,4679.531738 2090.904785,4723.207520 
	C2095.561523,4766.884766 2099.813477,4810.604004 2104.440674,4854.284180 
	C2109.067383,4897.963379 2114.000244,4941.609863 2118.682129,4985.283203 
	C2121.945801,5015.726074 2125.031006,5046.187988 2128.160645,5076.645508 
	C2129.929688,5093.860352 2131.626953,5111.083008 2132.087402,5130.147461 
	C2129.886475,5131.991211 2128.954834,5131.989258 2128.022949,5131.987793 
z"/>
<path fill="#FAFAFA" opacity="1.000000" stroke="none" 
	d="
M2499.769775,4608.154785 
	C2476.620361,4566.242188 2453.373291,4524.383789 2430.338135,4482.408691 
	C2315.136963,4272.489258 2199.988770,4062.540771 2084.839844,3852.593018 
	C2080.697021,3845.039551 2076.741211,3837.383789 2072.793457,3829.954590 
	C2073.594727,3829.064209 2073.955566,3828.543701 2074.430908,3828.167480 
	C2074.931396,3827.771973 2075.541260,3827.237549 2076.103760,3827.237061 
	C2123.345459,3827.194336 2170.587402,3827.197754 2218.821533,3827.197754 
	C2220.673340,3831.146484 2222.912354,3835.124268 2224.469238,3839.353271 
	C2318.417969,4094.524170 2412.310547,4349.715820 2504.817383,4606.542480 
	C2502.208008,4608.171875 2500.989014,4608.163574 2499.769775,4608.154785 
z"/>
<path fill="#FAFAFA" opacity="1.000000" stroke="none" 
	d="
M1718.998535,4079.240967 
	C1709.838135,4128.677734 1700.896118,4176.407715 1692.080688,4224.160645 
	C1680.850342,4284.995117 1669.750488,4345.853516 1658.542114,4406.691895 
	C1647.091553,4468.845215 1635.588867,4530.989258 1624.083984,4593.132812 
	C1620.966553,4609.971191 1617.759155,4626.792480 1613.587036,4643.520508 
	C1610.286865,4622.006348 1612.197266,4600.504883 1612.658325,4579.082031 
	C1613.774902,4527.208984 1615.492065,4475.347168 1617.180420,4423.488281 
	C1618.889648,4370.986328 1620.951904,4318.495605 1622.665039,4265.993652 
	C1623.446533,4242.041992 1623.636841,4218.071777 1624.311768,4194.115723 
	C1625.810303,4140.915039 1627.494263,4087.719482 1629.010376,4034.518799 
	C1630.450806,3983.979492 1631.729614,3933.435791 1633.175049,3882.896484 
	C1633.611938,3867.621094 1634.285767,3852.350830 1635.041870,3837.087402 
	C1635.200317,3833.891357 1636.199707,3830.737061 1636.769775,3827.780762 
	C1661.741577,3825.863281 1748.044434,3826.358643 1763.982544,3828.596436 
	C1763.373291,3833.692627 1763.033081,3838.870117 1762.106445,3843.940186 
	C1747.873535,3921.816406 1733.564331,3999.678711 1718.998535,4079.240967 
z"/>
<path fill="#FBFBFB" opacity="1.000000" stroke="none" 
	d="
M1225.216431,4488.317871 
	C1247.330933,4404.063965 1269.508057,4319.827148 1291.545654,4235.552734 
	C1326.369995,4102.381836 1361.098999,3969.186279 1395.883545,3836.005127 
	C1396.541748,3833.484619 1397.385742,3831.012451 1398.060913,3828.788086 
	C1414.123779,3826.035645 1533.051514,3826.007568 1550.956909,3828.856689 
	C1548.977905,3833.718750 1547.344849,3838.490967 1545.156738,3842.993652 
	C1507.950928,3919.552002 1470.629150,3996.053711 1433.428955,4072.614502 
	C1390.416748,4161.137207 1347.520020,4249.715332 1304.530518,4338.249023 
	C1280.714600,4387.295410 1256.811279,4436.299805 1230.760010,4486.698242 
	C1227.453857,4488.155273 1226.335083,4488.236328 1225.216431,4488.317871 
z"/>
<path fill="#FBFBFB" opacity="1.000000" stroke="none" 
	d="
M789.276184,3665.441895 
	C778.905945,3696.530762 769.086609,3726.133057 759.421509,3755.270752 
	C741.897339,3757.959229 507.845428,3757.905029 491.857666,3755.370117 
	C491.798645,3754.707031 491.521118,3753.953613 491.745972,3753.407471 
	C491.945709,3752.922852 492.666962,3752.594238 493.219940,3752.322754 
	C596.456665,3701.640625 699.697327,3650.966797 802.959229,3600.335938 
	C804.106262,3599.773193 805.520264,3599.692139 806.827515,3599.549561 
	C807.371216,3599.490234 807.961914,3599.860352 809.170715,3600.230957 
	C810.402405,3607.510254 806.219971,3613.760254 804.256592,3620.415771 
	C802.000916,3628.062500 799.205078,3635.549316 796.682495,3643.118164 
	C794.370605,3650.054932 792.110229,3657.009033 789.276184,3665.441895 
z"/>
<path fill="#F5F5F5" opacity="1.000000" stroke="none" 
	d="
M2489.090820,2063.996582 
	C2489.090576,2040.812866 2489.090576,2019.624878 2489.090576,1997.197144 
	C2511.809570,1994.010498 2533.549316,1996.044922 2555.164062,1995.663452 
	C2576.381104,1995.289062 2597.610107,1995.581909 2618.271484,1995.581909 
	C2621.640137,2000.292480 2618.269043,2002.259277 2616.129883,2004.468384 
	C2575.901855,2046.013428 2535.650146,2087.535645 2495.343750,2129.004883 
	C2494.535645,2129.836182 2493.022461,2129.982178 2491.837891,2130.446777 
	C2491.271729,2130.095947 2490.623047,2129.829102 2490.164795,2129.372070 
	C2489.761230,2128.969238 2489.322998,2128.354980 2489.320312,2127.831787 
	C2489.213867,2107.218750 2489.155518,2086.605469 2489.090820,2063.996582 
z"/>
<path fill="#C5C5C5" opacity="1.000000" stroke="none" 
	d="
M301.931061,3767.321533 
	C304.360443,3768.377930 305.404999,3769.769775 307.587738,3771.850098 
	C298.490265,3778.141602 288.339874,3783.908936 277.990479,3789.293457 
	C270.451385,3793.216553 262.649506,3796.634033 253.549927,3799.434814 
	C252.127563,3797.792236 252.120056,3796.991943 252.112564,3796.191650 
	C268.257141,3786.680176 284.401672,3777.168701 301.931061,3767.321533 
z"/>
<path fill="#ABABAB" opacity="1.000000" stroke="none" 
	d="
M2127.761719,5133.635742 
	C2128.954834,5131.989258 2129.886475,5131.991211 2132.214844,5131.949219 
	C2138.987793,5146.453613 2136.090332,5161.960938 2137.381104,5177.167969 
	C2134.087646,5163.206543 2130.794189,5149.245117 2127.761719,5133.635742 
z"/>
<path fill="#9B9B9B" opacity="1.000000" stroke="none" 
	d="
M2211.641113,783.073120 
	C2209.319092,784.071960 2207.738281,783.598206 2204.966309,783.483276 
	C2204.683350,772.245239 2206.683838,760.960571 2214.654541,747.835571 
	C2213.755371,761.196045 2213.068604,771.398315 2211.641113,783.073120 
z"/>
<path fill="#ABABAB" opacity="1.000000" stroke="none" 
	d="
M2499.799561,4609.588867 
	C2500.989014,4608.163574 2502.208008,4608.171875 2505.253906,4608.115234 
	C2513.162598,4618.207031 2516.505615,4629.275391 2517.116211,4641.472656 
	C2511.354004,4631.322754 2505.591553,4621.173340 2499.799561,4609.588867 
z"/>
<path fill="#B4B4B4" opacity="1.000000" stroke="none" 
	d="
M3316.114258,4200.807617 
	C3315.713623,4198.360840 3316.035889,4196.923828 3316.523193,4193.283691 
	C3324.116455,4197.191406 3331.544922,4203.301758 3339.979980,4210.134277 
	C3340.986572,4210.855957 3341.161377,4210.708984 3341.161377,4210.708984 
	C3338.119873,4210.679199 3334.688965,4211.547363 3332.117920,4210.432129 
	C3326.782715,4208.117676 3321.903809,4204.750977 3316.114258,4200.807617 
z"/>
<path fill="#ABABAB" opacity="1.000000" stroke="none" 
	d="
M1276.205688,1242.440796 
	C1274.453735,1243.776123 1272.715088,1243.681519 1269.678467,1243.781494 
	C1263.873901,1236.414185 1263.189087,1228.046265 1262.585449,1216.952759 
	C1269.411865,1225.565430 1272.410767,1233.532959 1276.205688,1242.440796 
z"/>
<path fill="#898989" opacity="1.000000" stroke="none" 
	d="
M250.723083,3796.353760 
	C252.120056,3796.991943 252.127563,3797.792236 252.109985,3799.792480 
	C245.312805,3806.670654 238.040054,3811.114990 227.977890,3809.324707 
	C235.096451,3805.055176 242.215027,3800.785645 250.723083,3796.353760 
z"/>
<path fill="#484848" opacity="1.000000" stroke="none" 
	d="
M1538.599365,2064.035645 
	C1533.810547,2056.296631 1529.515747,2048.824219 1533.438599,2037.121460 
	C1537.684937,2046.781006 1540.825684,2053.925537 1543.893066,2062.576172 
	C1542.659302,2064.094971 1541.498657,2064.107178 1538.599365,2064.035645 
z"/>
<path fill="#898989" opacity="1.000000" stroke="none" 
	d="
M647.192993,2593.430664 
	C647.927124,2595.385742 647.901245,2596.314941 647.924500,2598.637207 
	C640.395447,2599.533203 634.206421,2596.007812 626.920105,2590.335938 
	C634.788879,2588.329834 640.508423,2591.829102 647.192993,2593.430664 
z"/>
<path fill="#767676" opacity="1.000000" stroke="none" 
	d="
M1224.376709,4489.206055 
	C1226.335083,4488.236328 1227.453857,4488.155273 1230.253906,4488.003906 
	C1231.341187,4495.414062 1227.680298,4501.283203 1222.220093,4506.700195 
	C1217.645508,4500.485840 1223.519165,4495.511719 1224.376709,4489.206055 
z"/>
<path fill="#B4B4B4" opacity="1.000000" stroke="none" 
	d="
M1017.160645,1978.935547 
	C1018.567017,1984.115479 1016.995117,1987.659668 1013.179871,1985.551025 
	C1007.459351,1982.389404 1006.996643,1979.898560 1005.432739,1968.676636 
	C1009.536560,1972.079224 1012.833801,1974.812988 1017.160645,1978.935547 
z"/>
<path fill="#767676" opacity="1.000000" stroke="none" 
	d="
M1075.480469,3367.617188 
	C1072.923706,3370.268799 1069.846924,3371.520752 1066.367920,3372.936279 
	C1065.425781,3366.331787 1070.611084,3366.294434 1073.850464,3363.444336 
	C1075.057617,3364.228516 1075.009155,3365.222900 1075.480469,3367.617188 
z"/>
<path fill="#767676" opacity="1.000000" stroke="none" 
	d="
M2791.959473,1913.689331 
	C2792.554688,1912.096680 2792.747803,1910.073242 2793.860352,1909.034790 
	C2794.927734,1908.038452 2796.948486,1908.063110 2798.550293,1907.639038 
	C2798.616455,1909.249756 2798.959717,1910.915283 2798.655273,1912.452759 
	C2798.437988,1913.551880 2797.351562,1914.478760 2794.407471,1915.664429 
	C2792.094238,1915.127319 2792.026855,1914.408325 2791.959473,1913.689331 
z"/>
<path fill="#767676" opacity="1.000000" stroke="none" 
	d="
M1392.189209,2443.346191 
	C1389.358032,2442.507324 1388.048950,2441.001465 1387.148682,2437.954346 
	C1387.557495,2436.412842 1388.470947,2435.472412 1388.470947,2435.472412 
	C1391.149048,2437.086670 1393.827148,2438.700928 1396.770142,2441.500000 
	C1395.927246,2442.683350 1394.819336,2442.681396 1392.189209,2443.346191 
z"/>
<path fill="#FDFDFD" opacity="1.000000" stroke="none" 
	d="
M2789.930908,1921.872314 
	C2789.932617,1923.085449 2789.482910,1924.098022 2787.895020,1925.412354 
	C2786.503906,1925.488037 2785.799805,1925.061768 2784.113770,1923.886719 
	C2783.812988,1921.949219 2784.494629,1920.760376 2786.888672,1920.085693 
	C2788.601318,1920.600098 2789.930908,1921.872314 2789.930908,1921.872314 
z"/>
<path fill="#FDFDFD" opacity="1.000000" stroke="none" 
	d="
M2793.240967,1915.941162 
	C2793.475586,1917.443970 2792.630859,1918.851807 2790.858643,1921.066040 
	C2789.930908,1921.872314 2788.601318,1920.600098 2787.949463,1919.950684 
	C2788.121094,1917.871216 2788.944580,1916.441040 2790.863770,1914.350098 
	C2792.026855,1914.408325 2792.094238,1915.127319 2793.240967,1915.941162 
z"/>
<path fill="#767676" opacity="1.000000" stroke="none" 
	d="
M2802.262207,1902.952148 
	C2801.990723,1903.260742 2801.850342,1902.243164 2801.850342,1902.243164 
	C2801.850342,1902.243164 2802.533691,1902.643433 2802.262207,1902.952148 
z"/>
<path fill="#B4B4B4" opacity="1.000000" stroke="none" 
	d="
M3341.007568,4210.961914 
	C3340.998535,4211.368652 3340.968506,4211.669922 3341.050049,4211.339844 
	C3341.161377,4210.708984 3340.986572,4210.855957 3341.007568,4210.961914 
z"/>
<path fill="#040404" opacity="1.000000" stroke="none" 
	d="
M6299.999023,3113.244629 
	C6267.390137,3113.085449 6236.780762,3112.946045 6206.172363,3112.687988 
	C6205.061523,3112.678711 6203.959473,3111.503418 6201.855469,3110.301514 
	C6201.659668,3107.729980 6201.241211,3104.520264 6201.199219,3101.306152 
	C6200.859863,3075.351807 6200.479004,3049.397461 6200.325195,3023.441650 
	C6200.021484,2972.180176 6199.911621,2920.917480 6199.613281,2869.655762 
	C6199.426758,2837.708252 6199.090332,2805.760986 6198.734375,2773.814453 
	C6197.724609,2683.323486 6196.657715,2592.833008 6195.672852,2502.341553 
	C6195.624023,2497.845459 6196.137207,2493.343018 6196.475586,2487.292236 
	C6199.857910,2488.643311 6203.114258,2488.913574 6203.964844,2490.485352 
	C6206.140625,2494.506104 6207.443359,2499.048340 6208.750000,2503.483643 
	C6253.825195,2656.523193 6298.871094,2809.571289 6343.894531,2962.626221 
	C6356.648438,3005.982178 6369.326660,3049.360596 6382.023438,3092.733643 
	C6383.695801,3098.448730 6385.266113,3104.194092 6387.280762,3111.332031 
	C6383.036621,3112.044434 6379.475098,3113.138672 6375.907715,3113.161133 
	C6351.272461,3113.313965 6326.635254,3113.243164 6299.999023,3113.244629 
z"/>
<path fill="#484848" opacity="1.000000" stroke="none" 
	d="
M2256.319336,2546.756592 
	C2259.179443,2546.281494 2260.808350,2546.668945 2262.437256,2547.056396 
	C2260.934082,2549.951660 2259.643799,2552.986572 2257.864014,2555.700439 
	C2256.284668,2558.108643 2253.414551,2559.202637 2251.598389,2556.639648 
	C2250.613281,2555.249756 2251.519775,2552.229248 2252.145020,2550.113037 
	C2252.449951,2549.082031 2254.065430,2548.438232 2256.319336,2546.756592 
z"/>
<path fill="#9B9B9B" opacity="1.000000" stroke="none" 
	d="
M1525.443848,2028.652832 
	C1525.220947,2026.161011 1525.391846,2024.958496 1525.570435,2023.701416 
	C1531.856812,2024.419678 1532.193604,2029.148071 1532.241699,2033.864624 
	C1532.248413,2034.514526 1530.781128,2035.324341 1529.856079,2035.767944 
	C1529.483643,2035.946655 1528.445923,2035.497314 1528.207886,2035.061890 
	C1527.307251,2033.415771 1526.610596,2031.658081 1525.443848,2028.652832 
z"/>
<path fill="#000000" opacity="1.000000" stroke="none" 
	d="
M2631.676758,3676.304443 
	C2633.589600,3676.584717 2634.995361,3677.347168 2636.400879,3678.109863 
	C2634.955811,3678.575928 2633.510498,3679.041748 2631.118164,3678.637695 
	C2630.170898,3677.767578 2631.169434,3676.786865 2631.676758,3676.304443 
z"/>
<path fill="#767676" opacity="1.000000" stroke="none" 
	d="
M1387.090698,2436.873047 
	C1386.124878,2436.410400 1385.625732,2435.487793 1385.126587,2434.565186 
	C1385.965454,2434.401367 1386.804321,2434.237549 1388.057129,2434.772949 
	C1388.470947,2435.472412 1387.557495,2436.412842 1387.090698,2436.873047 
z"/>
<path fill="#000000" opacity="1.000000" stroke="none" 
	d="
M1263.972168,2807.997559 
	C1263.159058,2807.347656 1262.238647,2806.794922 1261.318115,2806.241943 
	C1262.416382,2806.363770 1263.514648,2806.485596 1264.117676,2807.430420 
	C1263.622437,2808.253662 1263.864746,2808.094971 1263.972168,2807.997559 
z"/>
</svg>